<?xml version="1.0" encoding="UTF-8" standalone="no"?>
<svg
   xmlns:osb="http://www.openswatchbook.org/uri/2009/osb"
   xmlns:dc="http://purl.org/dc/elements/1.1/"
   xmlns:cc="http://creativecommons.org/ns#"
   xmlns:rdf="http://www.w3.org/1999/02/22-rdf-syntax-ns#"
   xmlns:svg="http://www.w3.org/2000/svg"
   xmlns="http://www.w3.org/2000/svg"
   xmlns:xlink="http://www.w3.org/1999/xlink"
   xmlns:sodipodi="http://sodipodi.sourceforge.net/DTD/sodipodi-0.dtd"
   xmlns:inkscape="http://www.inkscape.org/namespaces/inkscape"
   width="154.74344mm"
   height="151.15266mm"
   viewBox="0 0 154.74344 151.15266"
   version="1.1"
   id="svg8"
   inkscape:version="1.0.1 (3bc2e813f5, 2020-09-07)"
   sodipodi:docname="CaptainV1.svg">
  <defs
     id="defs2">
    <linearGradient
       inkscape:collect="always"
       id="linearGradient5783">
      <stop
         style="stop-color:#007085;stop-opacity:1"
         offset="0"
         id="stop5779" />
      <stop
         style="stop-color:#000000;stop-opacity:0;"
         offset="1"
         id="stop5781" />
    </linearGradient>
    <linearGradient
       id="linearGradient5749"
       osb:paint="solid">
      <stop
         style="stop-color:#000000;stop-opacity:1;"
         offset="0"
         id="stop5747" />
    </linearGradient>
    <linearGradient
       inkscape:collect="always"
       xlink:href="#linearGradient5783"
       id="linearGradient5785"
       x1="39.422909"
       y1="40.726929"
       x2="202.10387"
       y2="209.4933"
       gradientUnits="userSpaceOnUse" />
  </defs>
  <sodipodi:namedview
     id="base"
     pagecolor="#ffffff"
     bordercolor="#666666"
     borderopacity="1.0"
     inkscape:pageopacity="0.0"
     inkscape:pageshadow="2"
     inkscape:zoom="1.4"
     inkscape:cx="460.31405"
     inkscape:cy="295.27623"
     inkscape:document-units="mm"
     inkscape:current-layer="layer2"
     inkscape:document-rotation="0"
     showgrid="false"
     inkscape:window-width="1267"
     inkscape:window-height="1198"
     inkscape:window-x="770"
     inkscape:window-y="192"
     inkscape:window-maximized="0" />
  <metadata
     id="metadata5">
    <rdf:RDF>
      <cc:Work
         rdf:about="">
        <dc:format>image/svg+xml</dc:format>
        <dc:type
           rdf:resource="http://purl.org/dc/dcmitype/StillImage" />
        <dc:title></dc:title>
      </cc:Work>
    </rdf:RDF>
  </metadata>
  <g
     inkscape:groupmode="layer"
     id="layer2"
     inkscape:label="Layer 2"
     transform="translate(-23.169939,-27.138689)">
    <rect
       style="fill:url(#linearGradient5785);fill-opacity:1;stroke:#000000;stroke-width:0.529167;stroke-miterlimit:4;stroke-dasharray:none;stroke-opacity:1"
       id="rect3802"
       width="154.21428"
       height="150.6235"
       x="23.434523"
       y="27.403273" />
  </g>
  <g
     inkscape:label="Layer 1"
     inkscape:groupmode="layer"
     id="layer1"
     transform="translate(-23.169939,-27.138689)">
    <path
       id="rect3636"
       style="fill:#999999;stroke:#000000;stroke-width:0.529167;stroke-miterlimit:4;stroke-dasharray:none;stroke-opacity:1"
       d="m 36.698903,118.49568 v 10.79521 l 66.866717,30.40383 66.8662,-30.40383 v -10.79521 l -66.8662,30.40383 z" />
    <path
       id="rect3636-9"
       style="fill:#999999;stroke:#000000;stroke-width:0.529167;stroke-miterlimit:4;stroke-dasharray:none;stroke-opacity:1"
       d="m 36.698903,107.69996 v 10.79572 l 66.866717,30.40383 66.8662,-30.40383 v -10.79572 l -66.8662,30.40383 z" />
    <path
       id="rect3636-4"
       style="fill:#999999;stroke:#000000;stroke-width:0.529167;stroke-miterlimit:4;stroke-dasharray:none;stroke-opacity:1"
       d="M 103.56562,42.158741 36.698903,72.56257 v 10.795723 l 66.866717,-30.403829 66.8662,30.403829 V 72.56257 Z" />
    <path
       id="rect3689"
       style="fill:#d4aa00;stroke:#000000;stroke-width:0.529167;stroke-miterlimit:4;stroke-dasharray:none;stroke-opacity:1"
       d="m 103.55425,60.667687 a 9.4581135,6.8953088 0 0 0 -9.458333,6.895703 9.4581135,6.8953088 0 0 0 2.956925,5.007965 H 83.948733 v 7.748362 h 14.261661 v 33.323033 l -24.517884,-0.005 1.246436,-2.46083 -8.20725,0.44958 4.493265,6.88279 1.301729,-2.56987 a 34.086601,8.5814219 0 0 0 30.55937,4.79609 34.086601,8.5814219 0 0 0 30.72784,-4.85087 l 0.92398,2.95848 5.56917,-6.04511 -8.02018,-1.80041 0.82889,2.65307 -24.14788,-0.005 V 80.319717 h 14.10094 v -7.748362 h -13.01419 a 9.4581135,6.8953088 0 0 0 2.95744,-5.007965 9.4581135,6.8953088 0 0 0 -9.45782,-6.895703 z" />
  </g>
</svg>
