<?xml version="1.0" encoding="UTF-8" standalone="no"?>
<svg
   xmlns:dc="http://purl.org/dc/elements/1.1/"
   xmlns:cc="http://creativecommons.org/ns#"
   xmlns:rdf="http://www.w3.org/1999/02/22-rdf-syntax-ns#"
   xmlns:svg="http://www.w3.org/2000/svg"
   xmlns="http://www.w3.org/2000/svg"
   xmlns:xlink="http://www.w3.org/1999/xlink"
   xmlns:sodipodi="http://sodipodi.sourceforge.net/DTD/sodipodi-0.dtd"
   xmlns:inkscape="http://www.inkscape.org/namespaces/inkscape"
   width="100.52917mm"
   height="140.52916mm"
   viewBox="0 0 100.52917 140.52916"
   version="1.1"
   id="svg8"
   inkscape:version="1.0.1 (3bc2e813f5, 2020-09-07)"
   sodipodi:docname="MogulElim.svg">
  <defs
     id="defs2">
    <linearGradient
       inkscape:collect="always"
       id="linearGradient1535">
      <stop
         style="stop-color:#feff00;stop-opacity:1;"
         offset="0"
         id="stop1531" />
      <stop
         style="stop-color:#feff00;stop-opacity:0;"
         offset="1"
         id="stop1533" />
    </linearGradient>
    <linearGradient
       inkscape:collect="always"
       id="linearGradient1342">
      <stop
         style="stop-color:#000000;stop-opacity:1;"
         offset="0"
         id="stop1338" />
      <stop
         style="stop-color:#000000;stop-opacity:0;"
         offset="1"
         id="stop1340" />
    </linearGradient>
    <filter
       inkscape:collect="always"
       style="color-interpolation-filters:sRGB"
       id="filter1010"
       x="-0.032125688"
       width="1.0642514"
       y="-0.022438936"
       height="1.0448779">
      <feGaussianBlur
         inkscape:collect="always"
         stdDeviation="1.2353531"
         id="feGaussianBlur1012" />
    </filter>
    <radialGradient
       inkscape:collect="always"
       xlink:href="#linearGradient1342"
       id="radialGradient1359"
       cx="50.648811"
       cy="60.205456"
       fx="50.648811"
       fy="60.205456"
       r="47.117325"
       gradientTransform="matrix(1,0,0,1.131046,184.68324,-5.9920687)"
       gradientUnits="userSpaceOnUse" />
    <linearGradient
       inkscape:collect="always"
       xlink:href="#linearGradient1535"
       id="linearGradient1537"
       x1="43.859325"
       y1="25.057182"
       x2="44.166943"
       y2="71.271103"
       gradientUnits="userSpaceOnUse" />
    <filter
       inkscape:collect="always"
       style="color-interpolation-filters:sRGB"
       id="filter3432"
       x="-0.0286032"
       width="1.0572064"
       y="-0.027963022"
       height="1.055926">
      <feGaussianBlur
         inkscape:collect="always"
         stdDeviation="1.1375766"
         id="feGaussianBlur3434" />
    </filter>
  </defs>
  <sodipodi:namedview
     id="base"
     pagecolor="#ffffff"
     bordercolor="#666666"
     borderopacity="1.0"
     inkscape:pageopacity="0.0"
     inkscape:pageshadow="2"
     inkscape:zoom="1.4142136"
     inkscape:cx="270.70736"
     inkscape:cy="208.59896"
     inkscape:document-units="mm"
     inkscape:current-layer="layer12"
     inkscape:document-rotation="0"
     showgrid="false"
     fit-margin-top="0"
     fit-margin-left="0"
     fit-margin-right="0"
     fit-margin-bottom="0"
     inkscape:window-width="1324"
     inkscape:window-height="1198"
     inkscape:window-x="26"
     inkscape:window-y="26"
     inkscape:window-maximized="0" />
  <metadata
     id="metadata5">
    <rdf:RDF>
      <cc:Work
         rdf:about="">
        <dc:format>image/svg+xml</dc:format>
        <dc:type
           rdf:resource="http://purl.org/dc/dcmitype/StillImage" />
        <dc:title />
      </cc:Work>
    </rdf:RDF>
  </metadata>
  <g
     inkscape:label="Base Layer"
     inkscape:groupmode="layer"
     id="layer1"
     style="display:inline"
     transform="translate(-62.290474,-43.58065)">
    <rect
       style="fill:#afafaf;fill-opacity:1;stroke:none;stroke-width:0.529167"
       id="rect833"
       width="100"
       height="140"
       x="62.555058"
       y="43.845234"
       ry="2.8348215" />
  </g>
  <g
     inkscape:groupmode="layer"
     id="layer4"
     inkscape:label="Platform Underglow"
     style="display:inline">
    <rect
       style="display:inline;fill:#ff00d5;fill-opacity:0.51004;stroke:none;stroke-width:0.493859;filter:url(#filter1010)"
       id="rect833-6-0"
       width="92.288994"
       height="132.12959"
       x="4.1598291"
       y="4.7252688"
       ry="2.6754553" />
  </g>
  <g
     inkscape:groupmode="layer"
     id="layer3"
     inkscape:label="Platform"
     style="display:inline">
    <rect
       style="display:inline;fill:#882c68;fill-opacity:1;stroke:none;stroke-width:0.48206"
       id="rect833-6"
       width="89.442848"
       height="129.89722"
       x="5.7256966"
       y="5.7174563"
       ry="2.6302526" />
  </g>
  <g
     inkscape:groupmode="layer"
     id="layer7"
     inkscape:label="Vault Shadow"
     style="display:inline" />
  <g
     inkscape:groupmode="layer"
     id="layer5"
     inkscape:label="Art"
     style="display:inline">
    <g
       id="g1522"
       transform="translate(-0.52916667,11.641668)">
      <path
         id="path865-6-8"
         style="display:inline;fill:#deb200;fill-opacity:1;stroke:#7d6700;stroke-width:0.366572;stroke-miterlimit:4;stroke-dasharray:none;stroke-opacity:1"
         d="m 31.415281,84.413049 a 8.5198053,2.4635584 0 0 1 -8.519806,2.463558 8.5198053,2.4635584 0 0 1 -8.519805,-2.463558 8.5198053,2.4635584 0 0 1 8.519805,-2.46355 8.5198053,2.4635584 0 0 1 8.519806,2.46355 z m -16.998622,0.08544 c -0.0069,0.01177 -0.01161,0.0248 -0.01161,0.03944 v 2.509498 c 0,0.01258 0.0036,0.02381 0.0088,0.03432 a 8.5198053,2.4635581 0 0 0 -0.01532,0.147644 8.5198053,2.4635581 0 0 0 8.519757,2.464003 8.5198053,2.4635581 0 0 0 8.519759,-2.464003 8.5198053,2.4635581 0 0 0 -0.02043,-0.169468 c 7.13e-4,-0.0045 0.0028,-0.0081 0.0028,-0.01258 V 84.679002 A 8.5198051,2.4635582 0 0 1 22.935479,86.92153 8.5198051,2.4635582 0 0 1 14.41665,84.498393 Z" />
      <path
         id="path865-6-8-1"
         style="display:inline;fill:#deb200;fill-opacity:1;stroke:#7d6700;stroke-width:0.408001;stroke-miterlimit:4;stroke-dasharray:none;stroke-opacity:1"
         d="m 78.830348,86.642274 a 9.4826786,2.7419797 0.56629079 0 1 -9.509318,2.648126 9.4826786,2.7419797 0.56629079 0 1 -9.455115,-2.83557 9.4826786,2.7419797 0.56629079 0 1 9.509316,-2.648115 9.4826786,2.7419797 0.56629079 0 1 9.455117,2.835559 z m -18.919753,-0.0919 c -0.0079,0.01294 -0.01319,0.02747 -0.01335,0.04376 l -0.02761,2.792976 c -1.69e-4,0.01403 0.0038,0.02653 0.0094,0.03829 a 9.4826786,2.7419792 0.56629079 0 0 -0.01868,0.164155 9.4826786,2.7419792 0.56629079 0 0 9.455056,2.836057 9.4826786,2.7419792 0.56629079 0 0 9.509269,-2.648615 9.4826786,2.7419792 0.56629079 0 0 -0.02087,-0.188837 c 8.85e-4,-0.005 0.0031,-0.009 0.0033,-0.01397 l 0.02605,-2.635884 a 9.4826783,2.7419795 0.56629079 0 1 -9.468109,2.402539 9.4826783,2.7419795 0.56629079 0 1 -9.454473,-2.790571 z" />
      <path
         id="path865-6-8-7"
         style="display:inline;fill:#deb200;fill-opacity:1;stroke:#7d6700;stroke-width:0.366572;stroke-miterlimit:4;stroke-dasharray:none;stroke-opacity:1"
         d="m 55.483381,86.353999 a 8.5198054,2.4635585 0 0 1 -8.519805,2.463558 8.5198054,2.4635585 0 0 1 -8.519805,-2.463558 8.5198054,2.4635585 0 0 1 8.519805,-2.463556 8.5198054,2.4635585 0 0 1 8.519805,2.463556 z m -16.998621,0.08544 c -0.0069,0.01177 -0.01161,0.0248 -0.01161,0.03944 v 2.509496 c 0,0.01258 0.0036,0.02381 0.0088,0.03432 a 8.5198054,2.4635581 0 0 0 -0.01532,0.147643 8.5198054,2.4635581 0 0 0 8.519757,2.463999 8.5198054,2.4635581 0 0 0 8.519759,-2.463999 8.5198054,2.4635581 0 0 0 -0.02043,-0.169467 c 7.13e-4,-0.0045 0.0028,-0.0081 0.0028,-0.01258 V 86.619952 A 8.5198052,2.4635583 0 0 1 47.00358,88.86248 8.5198052,2.4635583 0 0 1 38.484751,86.439344 Z" />
      <path
         id="path865-6-8-10"
         style="display:inline;fill:#deb200;fill-opacity:1;stroke:#7d6700;stroke-width:0.366572;stroke-miterlimit:4;stroke-dasharray:none;stroke-opacity:1"
         d="m 41.337372,88.816619 a 8.5198054,2.4635585 0 0 1 -8.519806,2.463558 8.5198054,2.4635585 0 0 1 -8.519805,-2.463558 8.5198054,2.4635585 0 0 1 8.519805,-2.463556 8.5198054,2.4635585 0 0 1 8.519806,2.463556 z m -16.998621,0.08544 c -0.0069,0.01177 -0.01161,0.0248 -0.01161,0.03944 v 2.509496 c 0,0.01258 0.0036,0.02381 0.0088,0.03432 a 8.5198054,2.4635581 0 0 0 -0.01532,0.147644 8.5198054,2.4635581 0 0 0 8.519756,2.463993 8.5198054,2.4635581 0 0 0 8.519759,-2.463993 8.5198054,2.4635581 0 0 0 -0.02043,-0.169467 c 7.14e-4,-0.0045 0.0028,-0.0081 0.0028,-0.01258 v -2.368349 a 8.5198052,2.4635583 0 0 1 -8.484935,2.242529 8.5198052,2.4635583 0 0 1 -8.518829,-2.423136 z" />
      <path
         id="path865-6-8-6"
         style="display:inline;fill:#deb200;fill-opacity:1;stroke:#7d6700;stroke-width:0.366572;stroke-miterlimit:4;stroke-dasharray:none;stroke-opacity:1"
         d="m 50.323573,84.387475 a 8.5198054,2.4635585 0 0 1 -8.519805,2.463558 8.5198054,2.4635585 0 0 1 -8.519806,-2.463558 8.5198054,2.4635585 0 0 1 8.519806,-2.463556 8.5198054,2.4635585 0 0 1 8.519805,2.463556 z m -16.998622,0.08544 c -0.0069,0.01177 -0.01161,0.0248 -0.01161,0.03944 v 2.509496 c 0,0.01258 0.0036,0.02381 0.0088,0.03432 a 8.5198054,2.4635581 0 0 0 -0.01532,0.147644 8.5198054,2.4635581 0 0 0 8.519757,2.463999 8.5198054,2.4635581 0 0 0 8.51976,-2.463999 8.5198054,2.4635581 0 0 0 -0.02043,-0.169468 c 7.13e-4,-0.0045 0.0028,-0.0081 0.0028,-0.01258 v -2.368348 a 8.5198052,2.4635583 0 0 1 -8.484937,2.242528 8.5198052,2.4635583 0 0 1 -8.518829,-2.423136 z" />
      <path
         id="path865-6-8-0"
         style="display:inline;fill:#deb200;fill-opacity:1;stroke:#7d6700;stroke-width:0.408001;stroke-miterlimit:4;stroke-dasharray:none;stroke-opacity:1"
         d="m 86.579753,91.903753 a 9.4826786,2.7419797 0 0 1 -9.482679,2.741978 9.4826786,2.7419797 0 0 1 -9.482678,-2.741978 9.4826786,2.7419797 0 0 1 9.482678,-2.741977 9.4826786,2.7419797 0 0 1 9.482679,2.741977 z m -18.919735,0.0951 c -0.0077,0.0131 -0.01292,0.0276 -0.01292,0.0439 v 2.793108 c 0,0.014 0.004,0.0265 0.0098,0.0382 a 9.4826786,2.7419792 0 0 0 -0.01705,0.16433 9.4826786,2.7419792 0 0 0 9.482624,2.74247 9.4826786,2.7419792 0 0 0 9.482627,-2.74247 9.4826786,2.7419792 0 0 0 -0.02274,-0.18862 c 7.94e-4,-0.005 0.0031,-0.009 0.0031,-0.014 v -2.636009 a 9.4826783,2.7419795 0 0 1 -9.443868,2.495969 9.4826783,2.7419795 0 0 1 -9.481592,-2.696989 z" />
      <path
         id="path865-6-8-66"
         style="display:inline;fill:#deb200;fill-opacity:1;stroke:#7d6700;stroke-width:0.408001;stroke-miterlimit:4;stroke-dasharray:none;stroke-opacity:1"
         d="m 86.577147,88.957733 a 9.4826786,2.7419797 0 0 1 -9.482679,2.74198 9.4826786,2.7419797 0 0 1 -9.482678,-2.74198 9.4826786,2.7419797 0 0 1 9.482678,-2.741977 9.4826786,2.7419797 0 0 1 9.482679,2.741977 z m -18.919735,0.0951 c -0.0077,0.0131 -0.01292,0.0276 -0.01292,0.0439 v 2.79311 c 0,0.014 0.004,0.0265 0.0098,0.0382 a 9.4826786,2.7419792 0 0 0 -0.01705,0.16433 9.4826786,2.7419792 0 0 0 9.482624,2.742468 9.4826786,2.7419792 0 0 0 9.482627,-2.742468 9.4826786,2.7419792 0 0 0 -0.02274,-0.18862 c 7.94e-4,-0.005 0.0031,-0.009 0.0031,-0.014 v -2.636011 a 9.4826783,2.7419795 0 0 1 -9.443868,2.49597 9.4826783,2.7419795 0 0 1 -9.481592,-2.69699 z" />
      <path
         id="path865-6-8-3"
         style="display:inline;fill:#deb200;fill-opacity:1;stroke:#7d6700;stroke-width:0.408001;stroke-miterlimit:4;stroke-dasharray:none;stroke-opacity:1"
         d="m 86.534645,85.987421 a 9.4826786,2.7419797 0 0 1 -9.482679,2.741982 9.4826786,2.7419797 0 0 1 -9.482678,-2.741982 9.4826786,2.7419797 0 0 1 9.482678,-2.741977 9.4826786,2.7419797 0 0 1 9.482679,2.741977 z m -18.919735,0.0951 c -0.0077,0.0131 -0.01292,0.0276 -0.01292,0.0439 v 2.793112 c 0,0.014 0.004,0.0265 0.0098,0.0382 a 9.4826786,2.7419792 0 0 0 -0.01705,0.16433 9.4826786,2.7419792 0 0 0 9.482624,2.74247 9.4826786,2.7419792 0 0 0 9.482627,-2.74247 9.4826786,2.7419792 0 0 0 -0.02274,-0.18862 c 7.94e-4,-0.005 0.0031,-0.009 0.0031,-0.014 V 86.28343 a 9.4826783,2.7419795 0 0 1 -9.443868,2.495973 9.4826783,2.7419795 0 0 1 -9.481592,-2.696993 z" />
      <path
         id="path865-6-8-4"
         style="display:inline;fill:#deb200;fill-opacity:1;stroke:#7d6700;stroke-width:0.408001;stroke-miterlimit:4;stroke-dasharray:none;stroke-opacity:1"
         d="m 88.11954,83.041401 a 9.4826786,2.7419797 0 0 1 -9.482679,2.74198 9.4826786,2.7419797 0 0 1 -9.482678,-2.74198 9.4826786,2.7419797 0 0 1 9.482678,-2.741977 9.4826786,2.7419797 0 0 1 9.482679,2.741977 z m -18.919735,0.0951 c -0.0077,0.0131 -0.01292,0.0276 -0.01292,0.0439 v 2.79311 c 0,0.014 0.004,0.0265 0.0098,0.0382 a 9.4826786,2.7419792 0 0 0 -0.01705,0.16433 9.4826786,2.7419792 0 0 0 9.482624,2.74247 9.4826786,2.7419792 0 0 0 9.482627,-2.74247 9.4826786,2.7419792 0 0 0 -0.02274,-0.18862 c 7.94e-4,-0.005 0.0031,-0.009 0.0031,-0.014 V 83.33741 a 9.4826783,2.7419795 0 0 1 -9.443868,2.49597 9.4826783,2.7419795 0 0 1 -9.481592,-2.69699 z" />
      <path
         id="path865-6-8-0-1"
         style="display:inline;fill:#deb200;fill-opacity:1;stroke:#7d6700;stroke-width:0.408001;stroke-miterlimit:4;stroke-dasharray:none;stroke-opacity:1"
         d="m 86.529434,80.095377 a 9.4826786,2.7419797 0 0 1 -9.482679,2.741984 9.4826786,2.7419797 0 0 1 -9.482678,-2.741984 9.4826786,2.7419797 0 0 1 9.482678,-2.741977 9.4826786,2.7419797 0 0 1 9.482679,2.741977 z m -18.919735,0.0951 c -0.0077,0.0131 -0.01292,0.0276 -0.01292,0.0439 v 2.793114 c 0,0.014 0.004,0.0265 0.0098,0.0382 a 9.4826786,2.7419792 0 0 0 -0.01705,0.16433 9.4826786,2.7419792 0 0 0 9.482624,2.74246 9.4826786,2.7419792 0 0 0 9.482626,-2.74246 9.4826786,2.7419792 0 0 0 -0.02274,-0.18862 c 7.94e-4,-0.005 0.0031,-0.009 0.0031,-0.014 v -2.636016 a 9.4826783,2.7419795 0 0 1 -9.443867,2.495966 9.4826783,2.7419795 0 0 1 -9.481592,-2.696986 z" />
      <path
         id="path865-6-8-66-3"
         style="display:inline;fill:#deb200;fill-opacity:1;stroke:#7d6700;stroke-width:0.408001;stroke-miterlimit:4;stroke-dasharray:none;stroke-opacity:1"
         d="m 84.939327,77.149356 a 9.4826786,2.7419797 0 0 1 -9.482679,2.741981 9.4826786,2.7419797 0 0 1 -9.482678,-2.741981 9.4826786,2.7419797 0 0 1 9.482678,-2.741976 9.4826786,2.7419797 0 0 1 9.482679,2.741976 z m -18.919735,0.0951 c -0.0077,0.0131 -0.01292,0.0276 -0.01292,0.0439 v 2.793111 c 0,0.014 0.004,0.0265 0.0098,0.0382 a 9.4826786,2.7419792 0 0 0 -0.01705,0.16433 9.4826786,2.7419792 0 0 0 9.482624,2.742474 9.4826786,2.7419792 0 0 0 9.482627,-2.742474 9.4826786,2.7419792 0 0 0 -0.02274,-0.18862 c 7.93e-4,-0.005 0.0031,-0.009 0.0031,-0.014 v -2.636011 a 9.4826783,2.7419795 0 0 1 -9.443868,2.49597 9.4826783,2.7419795 0 0 1 -9.481592,-2.696991 z" />
      <path
         id="path865-6-8-3-0"
         style="display:inline;fill:#deb200;fill-opacity:1;stroke:#7d6700;stroke-width:0.408001;stroke-miterlimit:4;stroke-dasharray:none;stroke-opacity:1"
         d="m 86.484326,74.179044 a 9.4826786,2.7419797 0 0 1 -9.482679,2.741982 9.4826786,2.7419797 0 0 1 -9.482678,-2.741982 9.4826786,2.7419797 0 0 1 9.482678,-2.741977 9.4826786,2.7419797 0 0 1 9.482679,2.741977 z m -18.919735,0.0951 c -0.0077,0.0131 -0.01292,0.0276 -0.01292,0.0439 v 2.793112 c 0,0.014 0.004,0.0265 0.0098,0.0382 a 9.4826786,2.7419792 0 0 0 -0.01705,0.16433 9.4826786,2.7419792 0 0 0 9.482624,2.742471 9.4826786,2.7419792 0 0 0 9.482627,-2.742471 9.4826786,2.7419792 0 0 0 -0.02274,-0.188619 c 7.93e-4,-0.005 0.0031,-0.009 0.0031,-0.014 v -2.636015 a 9.4826783,2.7419795 0 0 1 -9.443867,2.495973 9.4826783,2.7419795 0 0 1 -9.481592,-2.696993 z" />
      <path
         id="path865-6-8-4-5"
         style="display:inline;fill:#deb200;fill-opacity:1;stroke:#7d6700;stroke-width:0.408001;stroke-miterlimit:4;stroke-dasharray:none;stroke-opacity:1"
         d="m 86.48172,71.233024 a 9.4826786,2.7419797 0 0 1 -9.482679,2.74198 9.4826786,2.7419797 0 0 1 -9.482678,-2.74198 9.4826786,2.7419797 0 0 1 9.482678,-2.741977 9.4826786,2.7419797 0 0 1 9.482679,2.741977 z m -18.919735,0.0951 c -0.0077,0.0131 -0.01292,0.0276 -0.01292,0.0439 v 2.79311 c 0,0.014 0.004,0.0265 0.0098,0.0382 a 9.4826786,2.7419792 0 0 0 -0.01705,0.16433 9.4826786,2.7419792 0 0 0 9.482624,2.74247 9.4826786,2.7419792 0 0 0 9.482627,-2.74247 9.4826786,2.7419792 0 0 0 -0.02274,-0.18862 c 7.94e-4,-0.005 0.0031,-0.009 0.0031,-0.014 v -2.636012 a 9.4826783,2.7419795 0 0 1 -9.443868,2.49597 9.4826783,2.7419795 0 0 1 -9.481592,-2.69699 z" />
      <path
         id="path865-6-8-0-2"
         style="display:inline;fill:#deb200;fill-opacity:1;stroke:#7d6700;stroke-width:0.366572;stroke-miterlimit:4;stroke-dasharray:none;stroke-opacity:1"
         d="m 31.371968,81.478394 a 8.5198054,2.4635585 0 0 1 -8.519805,2.463559 8.5198054,2.4635585 0 0 1 -8.519806,-2.463559 8.5198054,2.4635585 0 0 1 8.519806,-2.463556 8.5198054,2.4635585 0 0 1 8.519805,2.463556 z m -16.998622,0.08544 c -0.0069,0.01177 -0.01161,0.0248 -0.01161,0.03944 v 2.509497 c 0,0.01258 0.0036,0.02381 0.0088,0.03432 a 8.5198054,2.4635581 0 0 0 -0.01532,0.147644 8.5198054,2.4635581 0 0 0 8.519758,2.463998 8.5198054,2.4635581 0 0 0 8.519758,-2.463998 8.5198054,2.4635581 0 0 0 -0.02043,-0.169467 c 7.13e-4,-0.0045 0.0028,-0.0081 0.0028,-0.01258 v -2.368351 a 8.5198052,2.4635583 0 0 1 -8.484935,2.242529 8.5198052,2.4635583 0 0 1 -8.518829,-2.423137 z" />
      <path
         id="path865-6-8-66-8"
         style="display:inline;fill:#deb200;fill-opacity:1;stroke:#7d6700;stroke-width:0.366572;stroke-miterlimit:4;stroke-dasharray:none;stroke-opacity:1"
         d="m 31.369627,78.831514 a 8.5198054,2.4635585 0 0 1 -8.519806,2.463558 8.5198054,2.4635585 0 0 1 -8.519806,-2.463558 8.5198054,2.4635585 0 0 1 8.519806,-2.463557 8.5198054,2.4635585 0 0 1 8.519806,2.463557 z m -16.998622,0.08544 c -0.0069,0.01177 -0.01161,0.0248 -0.01161,0.03944 v 2.509497 c 0,0.01258 0.0036,0.02381 0.0088,0.03432 a 8.5198054,2.4635581 0 0 0 -0.01532,0.147644 8.5198054,2.4635581 0 0 0 8.519756,2.463999 8.5198054,2.4635581 0 0 0 8.51976,-2.463999 8.5198054,2.4635581 0 0 0 -0.02043,-0.169468 c 7.13e-4,-0.0045 0.0028,-0.0081 0.0028,-0.01258 v -2.36835 a 8.5198052,2.4635583 0 0 1 -8.484936,2.242528 8.5198052,2.4635583 0 0 1 -8.51883,-2.423137 z" />
      <path
         id="path865-6-8-3-3"
         style="display:inline;fill:#deb200;fill-opacity:1;stroke:#7d6700;stroke-width:0.366572;stroke-miterlimit:4;stroke-dasharray:none;stroke-opacity:1"
         d="m 32.282311,76.162808 a 8.5198054,2.4635585 0 0 1 -8.519806,2.46356 8.5198054,2.4635585 0 0 1 -8.519805,-2.46356 8.5198054,2.4635585 0 0 1 8.519805,-2.463557 8.5198054,2.4635585 0 0 1 8.519806,2.463557 z m -16.998622,0.08544 c -0.0069,0.01177 -0.01161,0.0248 -0.01161,0.03944 v 2.509497 c 0,0.01258 0.0036,0.02381 0.0088,0.03432 a 8.5198054,2.4635581 0 0 0 -0.01532,0.147644 8.5198054,2.4635581 0 0 0 8.519758,2.463999 8.5198054,2.4635581 0 0 0 8.519759,-2.463999 8.5198054,2.4635581 0 0 0 -0.02043,-0.169467 c 7.12e-4,-0.0045 0.0028,-0.0081 0.0028,-0.01258 V 76.428749 A 8.5198052,2.4635583 0 0 1 23.80251,78.67128 8.5198052,2.4635583 0 0 1 15.283681,76.248141 Z" />
      <path
         id="path865-6-8-4-9"
         style="display:inline;fill:#deb200;fill-opacity:1;stroke:#7d6700;stroke-width:0.366572;stroke-miterlimit:4;stroke-dasharray:none;stroke-opacity:1"
         d="m 31.329099,73.515927 a 8.5198054,2.4635585 0 0 1 -8.519805,2.463559 8.5198054,2.4635585 0 0 1 -8.519806,-2.463559 8.5198054,2.4635585 0 0 1 8.519806,-2.463556 8.5198054,2.4635585 0 0 1 8.519805,2.463556 z m -16.998622,0.08544 c -0.0069,0.01177 -0.01161,0.0248 -0.01161,0.03944 v 2.509497 c 0,0.01258 0.0036,0.02381 0.0088,0.03432 a 8.5198054,2.4635581 0 0 0 -0.01532,0.147644 8.5198054,2.4635581 0 0 0 8.519758,2.463999 8.5198054,2.4635581 0 0 0 8.519759,-2.463999 8.5198054,2.4635581 0 0 0 -0.02043,-0.169468 c 7.13e-4,-0.0045 0.0028,-0.0081 0.0028,-0.01258 v -2.36835 a 8.5198052,2.4635583 0 0 1 -8.484936,2.242529 8.5198052,2.4635583 0 0 1 -8.51883,-2.423137 z" />
      <path
         id="path865-6-8-6-9"
         style="display:inline;fill:#deb200;fill-opacity:1;stroke:#7d6700;stroke-width:0.366572;stroke-miterlimit:4;stroke-dasharray:none;stroke-opacity:1"
         d="m 56.009981,81.294586 a 8.5198054,2.4635585 0 0 1 -8.519807,2.463558 8.5198054,2.4635585 0 0 1 -8.519805,-2.463558 8.5198054,2.4635585 0 0 1 8.519805,-2.463556 8.5198054,2.4635585 0 0 1 8.519807,2.463556 z m -16.998623,0.08544 c -0.0069,0.01177 -0.01161,0.0248 -0.01161,0.03944 v 2.509496 c 0,0.01258 0.0036,0.02381 0.0088,0.03432 a 8.5198054,2.4635581 0 0 0 -0.01532,0.147644 8.5198054,2.4635581 0 0 0 8.519757,2.463999 8.5198054,2.4635581 0 0 0 8.519761,-2.463999 8.5198054,2.4635581 0 0 0 -0.02043,-0.169467 c 7.12e-4,-0.0045 0.0028,-0.0081 0.0028,-0.01258 V 81.56053 a 8.5198052,2.4635583 0 0 1 -8.484938,2.242528 8.5198052,2.4635583 0 0 1 -8.518829,-2.423136 z" />
      <path
         id="path865-6-8-7-0"
         style="display:inline;fill:#deb200;fill-opacity:1;stroke:#7d6700;stroke-width:0.363613;stroke-miterlimit:4;stroke-dasharray:none;stroke-opacity:1"
         d="m 19.217786,93.435965 a 8.4510289,2.4436713 0 0 0 8.451027,2.44367 8.4510289,2.4436713 0 0 0 8.45103,-2.44367 8.4510289,2.4436713 0 0 0 -8.45103,-2.44366 8.4510289,2.4436713 0 0 0 -8.451027,2.44366 z m 16.861399,0.0847 c 0.0069,0.0117 0.0115,0.0246 0.0115,0.0391 v 2.48924 c 0,0.0125 -0.0036,0.0236 -0.0087,0.034 a 8.4510289,2.4436709 0 0 1 0.01519,0.14645 8.4510289,2.4436709 0 0 1 -8.450981,2.44411 8.4510289,2.4436709 0 0 1 -8.450983,-2.44411 8.4510289,2.4436709 0 0 1 0.02027,-0.1681 c -7.07e-4,-0.004 -0.0028,-0.008 -0.0028,-0.0125 v -2.34923 a 8.4510286,2.4436711 0 0 0 8.41644,2.22443 8.4510286,2.4436711 0 0 0 8.450061,-2.40358 z" />
      <path
         id="path865-6-8-10-5"
         style="display:inline;fill:#deb200;fill-opacity:1;stroke:#7d6700;stroke-width:0.363613;stroke-miterlimit:4;stroke-dasharray:none;stroke-opacity:1"
         d="m 33.2496,95.878705 a 8.4510289,2.4436713 0 0 0 8.451029,2.44367 8.4510289,2.4436713 0 0 0 8.451029,-2.44367 8.4510289,2.4436713 0 0 0 -8.451029,-2.44367 8.4510289,2.4436713 0 0 0 -8.451029,2.44367 z m 16.861399,0.0847 c 0.0069,0.0117 0.01151,0.0246 0.01151,0.0391 v 2.48924 c 0,0.0125 -0.0036,0.0236 -0.0087,0.034 a 8.4510289,2.4436709 0 0 1 0.0152,0.14645 8.4510289,2.4436709 0 0 1 -8.45098,2.444115 8.4510289,2.4436709 0 0 1 -8.450984,-2.444115 8.4510289,2.4436709 0 0 1 0.02026,-0.1681 c -7.08e-4,-0.004 -0.0028,-0.008 -0.0028,-0.0125 v -2.34923 a 8.4510286,2.4436711 0 0 0 8.416449,2.22443 8.4510286,2.4436711 0 0 0 8.45006,-2.40358 z" />
      <path
         id="path865-6-8-6-5"
         style="display:inline;fill:#deb200;fill-opacity:1;stroke:#7d6700;stroke-width:0.363613;stroke-miterlimit:4;stroke-dasharray:none;stroke-opacity:1"
         d="m 24.335941,91.485315 a 8.4510289,2.4436713 0 0 0 8.451027,2.44367 8.4510289,2.4436713 0 0 0 8.451031,-2.44367 8.4510289,2.4436713 0 0 0 -8.451031,-2.44367 8.4510289,2.4436713 0 0 0 -8.451027,2.44367 z m 16.861399,0.0847 c 0.0069,0.0117 0.01151,0.0246 0.01151,0.0391 v 2.48924 c 0,0.0125 -0.0036,0.0236 -0.0087,0.034 a 8.4510289,2.4436709 0 0 1 0.0152,0.14645 8.4510289,2.4436709 0 0 1 -8.450979,2.44411 8.4510289,2.4436709 0 0 1 -8.450985,-2.44411 8.4510289,2.4436709 0 0 1 0.02026,-0.1681 c -7.07e-4,-0.005 -0.0028,-0.008 -0.0028,-0.0125 v -2.34923 a 8.4510286,2.4436711 0 0 0 8.416448,2.22443 8.4510286,2.4436711 0 0 0 8.450061,-2.40358 z" />
      <path
         id="path865-6-8-6-9-7"
         style="display:inline;fill:#deb200;fill-opacity:1;stroke:#7d6700;stroke-width:0.363613;stroke-miterlimit:4;stroke-dasharray:none;stroke-opacity:1"
         d="m 18.695435,88.417395 a 8.4510289,2.4436713 0 0 0 8.45103,2.44367 8.4510289,2.4436713 0 0 0 8.45103,-2.44367 8.4510289,2.4436713 0 0 0 -8.45103,-2.44367 8.4510289,2.4436713 0 0 0 -8.45103,2.44367 z m 16.861402,0.0847 c 0.0069,0.0117 0.0115,0.0246 0.0115,0.0391 v 2.48923 c 0,0.0125 -0.0036,0.0236 -0.0087,0.034 a 8.4510289,2.4436709 0 0 1 0.01519,0.14646 8.4510289,2.4436709 0 0 1 -8.450981,2.4441 8.4510289,2.4436709 0 0 1 -8.450982,-2.4441 8.4510289,2.4436709 0 0 1 0.02026,-0.1681 c -7.08e-4,-0.005 -0.0028,-0.008 -0.0028,-0.0125 v -2.34923 a 8.4510286,2.4436711 0 0 0 8.416441,2.22442 8.4510286,2.4436711 0 0 0 8.450061,-2.40357 z" />
      <path
         id="path865-6-8-0-1-3"
         style="display:inline;fill:#deb200;fill-opacity:1;stroke:#7d6700;stroke-width:0.408001;stroke-miterlimit:4;stroke-dasharray:none;stroke-opacity:1"
         d="m 70.661519,98.729738 a 9.4826786,2.7419797 0 0 1 -9.482679,2.741982 9.4826786,2.7419797 0 0 1 -9.482678,-2.741982 9.4826786,2.7419797 0 0 1 9.482678,-2.741978 9.4826786,2.7419797 0 0 1 9.482679,2.741978 z m -18.919735,0.0951 c -0.0077,0.0131 -0.01292,0.0276 -0.01292,0.0439 v 2.793112 c 0,0.014 0.004,0.0265 0.0098,0.0382 a 9.4826786,2.7419792 0 0 0 -0.01705,0.16433 9.4826786,2.7419792 0 0 0 9.482623,2.74246 9.4826786,2.7419792 0 0 0 9.482626,-2.74246 9.4826786,2.7419792 0 0 0 -0.02274,-0.18862 c 7.94e-4,-0.005 0.0031,-0.009 0.0031,-0.014 v -2.636015 a 9.4826783,2.7419795 0 0 1 -9.443866,2.495965 9.4826783,2.7419795 0 0 1 -9.481592,-2.696985 z" />
      <path
         id="path865-6-8-66-3-5"
         style="display:inline;fill:#deb200;fill-opacity:1;stroke:#7d6700;stroke-width:0.408001;stroke-miterlimit:4;stroke-dasharray:none;stroke-opacity:1"
         d="m 69.071412,95.783716 a 9.4826786,2.7419797 0 0 1 -9.482679,2.741982 9.4826786,2.7419797 0 0 1 -9.482678,-2.741982 9.4826786,2.7419797 0 0 1 9.482678,-2.741976 9.4826786,2.7419797 0 0 1 9.482679,2.741976 z m -18.919735,0.0951 c -0.0077,0.0131 -0.01292,0.0276 -0.01292,0.0439 v 2.793112 c 0,0.014 0.004,0.0265 0.0098,0.0382 a 9.4826786,2.7419792 0 0 0 -0.01705,0.16433 9.4826786,2.7419792 0 0 0 9.482624,2.742472 9.4826786,2.7419792 0 0 0 9.482627,-2.742472 9.4826786,2.7419792 0 0 0 -0.02274,-0.18862 c 7.94e-4,-0.005 0.0031,-0.009 0.0031,-0.014 v -2.636012 a 9.4826783,2.7419795 0 0 1 -9.443868,2.495971 9.4826783,2.7419795 0 0 1 -9.481592,-2.696992 z" />
      <path
         id="path865-6-8-3-0-8"
         style="display:inline;fill:#deb200;fill-opacity:1;stroke:#7d6700;stroke-width:0.408001;stroke-miterlimit:4;stroke-dasharray:none;stroke-opacity:1"
         d="m 70.616411,92.813404 a 9.4826786,2.7419797 0 0 1 -9.482679,2.741982 9.4826786,2.7419797 0 0 1 -9.482678,-2.741982 9.4826786,2.7419797 0 0 1 9.482678,-2.741977 9.4826786,2.7419797 0 0 1 9.482679,2.741977 z m -18.919735,0.0951 c -0.0077,0.0131 -0.01292,0.0276 -0.01292,0.0439 v 2.793112 c 0,0.014 0.004,0.0265 0.0098,0.0382 a 9.4826786,2.7419792 0 0 0 -0.01705,0.16433 9.4826786,2.7419792 0 0 0 9.482624,2.742472 9.4826786,2.7419792 0 0 0 9.482627,-2.742472 9.4826786,2.7419792 0 0 0 -0.02274,-0.188619 c 7.94e-4,-0.005 0.0031,-0.009 0.0031,-0.014 v -2.636016 a 9.4826783,2.7419795 0 0 1 -9.443867,2.495973 9.4826783,2.7419795 0 0 1 -9.481592,-2.696993 z" />
      <path
         id="path865-6-8-4-5-0"
         style="display:inline;fill:#deb200;fill-opacity:1;stroke:#7d6700;stroke-width:0.408001;stroke-miterlimit:4;stroke-dasharray:none;stroke-opacity:1"
         d="m 70.613805,89.867384 a 9.4826786,2.7419797 0 0 1 -9.482679,2.74198 9.4826786,2.7419797 0 0 1 -9.482678,-2.74198 9.4826786,2.7419797 0 0 1 9.482678,-2.741977 9.4826786,2.7419797 0 0 1 9.482679,2.741977 z m -18.919735,0.0951 c -0.0077,0.0131 -0.01292,0.0276 -0.01292,0.0439 v 2.79311 c 0,0.014 0.004,0.0265 0.0098,0.0382 a 9.4826786,2.7419792 0 0 0 -0.01705,0.16433 9.4826786,2.7419792 0 0 0 9.482624,2.74247 9.4826786,2.7419792 0 0 0 9.482627,-2.74247 9.4826786,2.7419792 0 0 0 -0.02274,-0.18862 c 7.94e-4,-0.005 0.0031,-0.009 0.0031,-0.014 v -2.636012 a 9.4826783,2.7419795 0 0 1 -9.443868,2.495969 9.4826783,2.7419795 0 0 1 -9.481593,-2.69699 z" />
    </g>
    <g
       aria-label="M"
       transform="scale(1.1334484,0.8822634)"
       id="text1526"
       style="font-style:normal;font-weight:normal;font-size:69.6322px;line-height:1.25;font-family:sans-serif;fill:#000000;fill-opacity:1;stroke:none;stroke-width:0.816">
      <path
         d="M 64.347318,34.82633 76.154586,84.669268 65.871468,84.861279 57.352295,48.331745 47.89456,84.669268 H 40.457194 L 31.649925,47.949335 21.785632,84.861279 11.65196,84.669268 24.355987,34.82633 h 13.639862 l 6.045968,19.050164 5.944662,-18.858154 z"
         style="font-style:normal;font-variant:normal;font-weight:normal;font-stretch:normal;font-size:69.6322px;font-family:Impact;-inkscape-font-specification:'Impact, Normal';font-variant-ligatures:normal;font-variant-caps:normal;font-variant-numeric:normal;font-variant-east-asian:normal;stroke:url(#linearGradient1537);stroke-width:1.83899996;stroke-opacity:1;stroke-miterlimit:4;stroke-dasharray:none"
         id="path1528"
         sodipodi:nodetypes="cccccccccccccc" />
    </g>
  </g>
  <g
     inkscape:groupmode="layer"
     id="layer8"
     inkscape:label="Vault Rim"
     style="display:inline">
    <path
       id="path1198"
       style="display:inline;fill:#b6b6b6;fill-opacity:1;stroke:#484646;stroke-width:0.48206;stroke-opacity:1"
       d="m 95.181588,30.688018 a 60.759757,60.759757 0 0 0 -0.22119,-0.244946 60.759757,60.759757 0 0 0 -0.22738,-0.248566 60.759757,60.759757 0 0 0 -0.22892,-0.247528 60.759757,60.759757 0 0 0 -0.23048,-0.246497 60.759757,60.759757 0 0 0 -0.23151,-0.244948 60.759757,60.759757 0 0 0 -0.23304,-0.243396 60.759757,60.759757 0 0 0 -0.23464,-0.242361 60.759757,60.759757 0 0 0 -0.23563,-0.241329 60.759757,60.759757 0 0 0 -0.2372,-0.239778 60.759757,60.759757 0 0 0 -0.23823,-0.238229 60.759757,60.759757 0 0 0 -0.23977,-0.237196 60.759757,60.759757 0 0 0 -0.24082,-0.235643 60.759757,60.759757 0 0 0 -0.24236,-0.234611 60.759757,60.759757 0 0 0 -0.24339,-0.233061 60.759757,60.759757 0 0 0 -0.24495,-0.232027 60.759757,60.759757 0 0 0 -0.24598,-0.230478 60.759757,60.759757 0 0 0 -0.24752,-0.228926 60.759757,60.759757 0 0 0 -0.24858,-0.227377 60.759757,60.759757 0 0 0 -0.25011,-0.226343 60.759757,60.759757 0 0 0 -0.25114,-0.22479 60.759757,60.759757 0 0 0 -0.25271,-0.223761 60.759757,60.759757 0 0 0 -0.25373,-0.221692 60.759757,60.759757 0 0 0 -0.25477,-0.220657 60.759757,60.759757 0 0 0 -0.2563,-0.219625 60.759757,60.759757 0 0 0 -0.25735,-0.217559 60.759757,60.759757 0 0 0 -0.25838,-0.216525 60.759757,60.759757 0 0 0 -0.25994,-0.214974 60.759757,60.759757 0 0 0 -0.26096,-0.213423 60.759757,60.759757 0 0 0 -0.262,-0.211873 60.759757,60.759757 0 0 0 -0.26303,-0.210839 60.759757,60.759757 0 0 0 -0.26459,-0.20929 60.759757,60.759757 0 0 0 -0.26561,-0.207222 60.759757,60.759757 0 0 0 -0.26665,-0.20619 60.759757,60.759757 0 0 0 -0.2682,-0.204639 60.759757,60.759757 0 0 0 -0.26924,-0.203605 60.759757,60.759757 0 0 0 -0.26975,-0.201538 60.759757,60.759757 0 0 0 -0.2713,-0.199986 60.759757,60.759757 0 0 0 -0.27234,-0.198956 60.759757,60.759757 0 0 0 -0.27388,-0.197403 60.759757,60.759757 0 0 0 -0.2744,-0.195336 60.759757,60.759757 0 0 0 -0.27544,-0.194305 60.759757,60.759757 0 0 0 -0.27699,-0.192752 60.759757,60.759757 0 0 0 -0.2775,-0.190688 60.759757,60.759757 0 0 0 -0.27905,-0.18965 60.759757,60.759757 0 0 0 -0.28009,-0.188103 60.759757,60.759757 0 0 0 -0.2806,-0.186037 60.759757,60.759757 0 0 0 -0.28215,-0.184999 60.759757,60.759757 0 0 0 -0.28319,-0.183451 60.759757,60.759757 0 0 0 -0.2837,-0.181901 60.759757,60.759757 0 0 0 -0.28526,-0.179835 60.759757,60.759757 0 0 0 -0.28577,-0.1788 60.759757,60.759757 0 0 0 -0.2868,-0.176734 60.759757,60.759757 0 0 0 -0.28836,-0.175183 60.759757,60.759757 0 0 0 -0.28887,-0.174149 60.759757,60.759757 0 0 0 -0.2899,-0.172082 60.759757,60.759757 0 0 0 -0.29094,-0.170535 60.759757,60.759757 0 0 0 -0.29146,-0.168981 60.759757,60.759757 0 0 0 -0.293,-0.166915 60.759757,60.759757 0 0 0 -0.29352,-0.165881 60.759757,60.759757 0 0 0 -0.29456,-0.16433 60.759757,60.759757 0 0 0 -0.29559,-0.162266 60.759757,60.759757 0 0 0 -0.2961,-0.160713 60.759757,60.759757 0 0 0 -0.29714,-0.159163 60.759757,60.759757 0 0 0 -0.29818,-0.157612 60.759757,60.759757 0 0 0 -0.2992,-0.155546 60.759757,60.759757 0 0 0 -0.29973,-0.153996 60.759757,60.759757 0 0 0 -0.30075,-0.152447 60.759757,60.759757 0 0 0 -0.30128,-0.150895 60.759757,60.759757 0 0 0 -0.30282,-0.149344 60.759757,60.759757 0 0 0 -0.30282,-0.147278 60.759757,60.759757 0 0 0 -0.30438,-0.145727 60.759757,60.759757 0 0 0 -0.30437,-0.144179 60.759757,60.759757 0 0 0 -0.30593,-0.142627 60.759757,60.759757 0 0 0 -0.30644,-0.140559 60.759757,60.759757 0 0 0 -0.30696,-0.13901 60.759757,60.759757 0 0 0 -0.30799,-0.137459 60.759757,60.759757 0 0 0 -0.30851,-0.135392 60.759757,60.759757 0 0 0 -0.30954,-0.133843 60.759757,60.759757 0 0 0 -0.31006,-0.132291 60.759757,60.759757 0 0 0 -0.31109,-0.130225 60.759757,60.759757 0 0 0 -0.31161,-0.128673 60.759757,60.759757 0 0 0 -0.31264,-0.127124 60.759757,60.759757 0 0 0 -0.31264,-0.125058 60.759757,60.759757 0 0 0 -0.31368,-0.123507 60.759757,60.759757 0 0 0 -0.31471,-0.121955 60.759757,60.759757 0 0 0 -0.31522,-0.11989 60.759757,60.759757 0 0 0 -0.31575,-0.118338 60.759757,60.759757 0 0 0 -0.31626,-0.116274 60.759757,60.759757 0 0 0 -0.31677,-0.11472 60.759757,60.759757 0 0 0 -0.31781,-0.113173 60.759757,60.759757 0 0 0 -0.31833,-0.111104 60.759757,60.759757 0 0 0 -0.31884,-0.109554 60.759757,60.759757 0 0 0 -0.31936,-0.107487 60.759757,60.759757 0 0 0 -0.3204,-0.105936 60.759757,60.759757 0 0 0 -0.32039,-0.104386 60.759757,60.759757 0 0 0 -0.32143,-0.10232 60.759757,60.759757 0 0 0 -0.32194,-0.100253 60.759757,60.759757 0 0 0 -0.32246,-0.0987 60.759757,60.759757 0 0 0 -0.32247,-0.09715 60.759757,60.759757 0 0 0 -0.32349,-0.09508 60.759757,60.759757 0 0 0 -0.32401,-0.09353 60.759757,60.759757 0 0 0 -0.32453,-0.09147 60.759757,60.759757 0 0 0 -0.32504,-0.08992 60.759757,60.759757 0 0 0 -0.32556,-0.08785 60.759757,60.759757 0 0 0 -0.32608,-0.0863 60.759757,60.759757 0 0 0 -0.32608,-0.08423 60.759757,60.759757 0 0 0 -0.32711,-0.08268 60.759757,60.759757 0 0 0 -0.32711,-0.08061 60.759757,60.759757 0 0 0 -0.32815,-0.07906 60.759757,60.759757 0 0 0 -0.32815,-0.077 60.759757,60.759757 0 0 0 -0.32866,-0.07545 60.759757,60.759757 0 0 0 -0.32918,-0.07338 60.759757,60.759757 0 0 0 -0.32918,-0.07131 60.759757,60.759757 0 0 0 -0.32969,-0.06976 60.759757,60.759757 0 0 0 -0.33021,-0.06821 60.759757,60.759757 0 0 0 -0.33073,-0.06615 60.759757,60.759757 0 0 0 -0.33125,-0.06408 60.759757,60.759757 0 0 0 -0.33125,-0.06253 60.759757,60.759757 0 0 0 -0.33176,-0.06046 60.759757,60.759757 0 0 0 -0.33176,-0.05891 60.759757,60.759757 0 0 0 -0.33228,-0.05684 60.759757,60.759757 0 0 0 -0.3328,-0.05529 60.759757,60.759757 0 0 0 -0.33279,-0.05323 60.759757,60.759757 0 0 0 -0.33332,-0.05116 60.759757,60.759757 0 0 0 -0.33331,-0.04961 60.759757,60.759757 0 0 0 -0.33383,-0.04806 60.759757,60.759757 0 0 0 -0.33383,-0.04547 60.759757,60.759757 0 0 0 -0.33434,-0.04393 60.759757,60.759757 0 0 0 -0.33487,-0.04237 60.759757,60.759757 0 0 0 -0.33434,-0.04031 60.759757,60.759757 0 0 0 -0.33538,-0.03824 60.759757,60.759757 0 0 0 -0.33487,-0.03669 60.759757,60.759757 0 0 0 -0.33538,-0.03462 60.759757,60.759757 0 0 0 -0.33538,-0.03307 60.759757,60.759757 0 0 0 -0.33589,-0.03049 60.759757,60.759757 0 0 0 -0.3359,-0.02946 60.759757,60.759757 0 0 0 -0.3359,-0.02739 60.759757,60.759757 0 0 0 -0.33641,-0.02532 60.759757,60.759757 0 0 0 -0.33641,-0.02325 60.759757,60.759757 0 0 0 -0.33642,-0.0217 60.759757,60.759757 0 0 0 -0.33641,-0.01964 60.759757,60.759757 0 0 0 -0.33693,-0.01809 60.759757,60.759757 0 0 0 -0.33693,-0.01602 60.759757,60.759757 0 0 0 -0.33642,-0.01395 60.759757,60.759757 0 0 0 -0.33693,-0.0124 60.759757,60.759757 0 0 0 -0.33744,-0.01034 60.759757,60.759757 0 0 0 -0.33694,-0.0088 60.759757,60.759757 0 0 0 -0.33692,-0.0067 60.759757,60.759757 0 0 0 -0.33693,-0.0047 60.759757,60.759757 0 0 0 -0.33745,-0.0031 60.759757,60.759757 0 0 0 -0.33693,-0.001 60.759757,60.759757 0 0 0 -0.0264,0 60.759757,60.759757 0 0 0 -0.0258,0 60.759757,60.759757 0 0 0 -0.33693,0.001 60.759757,60.759757 0 0 0 -0.33744,0.0031 60.759757,60.759757 0 0 0 -0.33693,0.0047 60.759757,60.759757 0 0 0 -0.33693,0.0067 60.759757,60.759757 0 0 0 -0.33693,0.0088 60.759757,60.759757 0 0 0 -0.33745,0.01034 60.759757,60.759757 0 0 0 -0.33693,0.0124 60.759757,60.759757 0 0 0 -0.33642,0.01395 60.759757,60.759757 0 0 0 -0.33693,0.01602 60.759757,60.759757 0 0 0 -0.33692,0.01809 60.759757,60.759757 0 0 0 -0.33642,0.01964 60.759757,60.759757 0 0 0 -0.33641,0.0217 60.759757,60.759757 0 0 0 -0.33642,0.02325 60.759757,60.759757 0 0 0 -0.33641,0.02584 60.759757,60.759757 0 0 0 -0.3359,0.02687 60.759757,60.759757 0 0 0 -0.33589,0.02946 60.759757,60.759757 0 0 0 -0.33538,0.03049 60.759757,60.759757 0 0 0 -0.3359,0.03307 60.759757,60.759757 0 0 0 -0.33538,0.03462 60.759757,60.759757 0 0 0 -0.33486,0.03669 60.759757,60.759757 0 0 0 -0.33538,0.03824 60.759757,60.759757 0 0 0 -0.33435,0.04031 60.759757,60.759757 0 0 0 -0.33486,0.04237 60.759757,60.759757 0 0 0 -0.33435,0.04393 60.759757,60.759757 0 0 0 -0.33383,0.04599 60.759757,60.759757 0 0 0 -0.33383,0.04754 60.759757,60.759757 0 0 0 -0.33331,0.04961 60.759757,60.759757 0 0 0 -0.33332,0.05116 60.759757,60.759757 0 0 0 -0.33279,0.05323 60.759757,60.759757 0 0 0 -0.3328,0.05529 60.759757,60.759757 0 0 0 -0.33228,0.05684 60.759757,60.759757 0 0 0 -0.33176,0.05891 60.759757,60.759757 0 0 0 -0.33176,0.06046 60.759757,60.759757 0 0 0 -0.33125,0.06253 60.759757,60.759757 0 0 0 -0.33125,0.06408 60.759757,60.759757 0 0 0 -0.33073,0.06615 60.759757,60.759757 0 0 0 -0.33021,0.06821 60.759757,60.759757 0 0 0 -0.32969,0.06976 60.759757,60.759757 0 0 0 -0.32918,0.07131 60.759757,60.759757 0 0 0 -0.32918,0.0739 60.759757,60.759757 0 0 0 -0.32866,0.07493 60.759757,60.759757 0 0 0 -0.32815,0.077 60.759757,60.759757 0 0 0 -0.32814,0.07906 60.759757,60.759757 0 0 0 -0.32711,0.08061 60.759757,60.759757 0 0 0 -0.32712,0.08268 60.759757,60.759757 0 0 0 -0.32607,0.08423 60.759757,60.759757 0 0 0 -0.32608,0.0863 60.759757,60.759757 0 0 0 -0.32556,0.08785 60.759757,60.759757 0 0 0 -0.32505,0.08992 60.759757,60.759757 0 0 0 -0.32453,0.09147 60.759757,60.759757 0 0 0 -0.32401,0.09353 60.759757,60.759757 0 0 0 -0.32349,0.09508 60.759757,60.759757 0 0 0 -0.32246,0.09715 60.759757,60.759757 0 0 0 -0.32247,0.0987 60.759757,60.759757 0 0 0 -0.32194,0.100769 60.759757,60.759757 0 0 0 -0.32143,0.10232 60.759757,60.759757 0 0 0 -0.32039,0.10387 60.759757,60.759757 0 0 0 -0.32039,0.105936 60.759757,60.759757 0 0 0 -0.31936,0.107487 60.759757,60.759757 0 0 0 -0.31885,0.109554 60.759757,60.759757 0 0 0 -0.31833,0.111104 60.759757,60.759757 0 0 0 -0.31781,0.113173 60.759757,60.759757 0 0 0 -0.31677,0.11472 60.759757,60.759757 0 0 0 -0.31626,0.116274 60.759757,60.759757 0 0 0 -0.31574,0.118338 60.759757,60.759757 0 0 0 -0.31523,0.11989 60.759757,60.759757 0 0 0 -0.31471,0.121955 60.759757,60.759757 0 0 0 -0.31368,0.123507 60.759757,60.759757 0 0 0 -0.31264,0.125058 60.759757,60.759757 0 0 0 -0.31264,0.127124 60.759757,60.759757 0 0 0 -0.31161,0.128673 60.759757,60.759757 0 0 0 -0.31058,0.130225 60.759757,60.759757 0 0 0 -0.31057,0.132291 60.759757,60.759757 0 0 0 -0.30954,0.133843 60.759757,60.759757 0 0 0 -0.30851,0.135908 60.759757,60.759757 0 0 0 -0.30799,0.136943 60.759757,60.759757 0 0 0 -0.30696,0.13901 60.759757,60.759757 0 0 0 -0.30644,0.140559 60.759757,60.759757 0 0 0 -0.30592,0.142627 60.759757,60.759757 0 0 0 -0.30438,0.144179 60.759757,60.759757 0 0 0 -0.30437,0.145727 60.759757,60.759757 0 0 0 -0.30283,0.147278 60.759757,60.759757 0 0 0 -0.30282,0.149344 60.759757,60.759757 0 0 0 -0.30128,0.150895 60.759757,60.759757 0 0 0 -0.30075,0.152447 60.759757,60.759757 0 0 0 -0.29973,0.153996 60.759757,60.759757 0 0 0 -0.2992,0.156062 60.759757,60.759757 0 0 0 -0.29817,0.157096 60.759757,60.759757 0 0 0 -0.29714,0.159163 60.759757,60.759757 0 0 0 -0.29611,0.160713 60.759757,60.759757 0 0 0 -0.29559,0.162782 60.759757,60.759757 0 0 0 -0.29456,0.163814 60.759757,60.759757 0 0 0 -0.29352,0.165881 60.759757,60.759757 0 0 0 -0.293,0.167431 60.759757,60.759757 0 0 0 -0.29146,0.168465 60.759757,60.759757 0 0 0 -0.29094,0.170535 60.759757,60.759757 0 0 0 -0.289898,0.172598 60.759757,60.759757 0 0 0 -0.28887,0.173633 60.759757,60.759757 0 0 0 -0.28836,0.175183 60.759757,60.759757 0 0 0 -0.2868,0.17725 60.759757,60.759757 0 0 0 -0.28577,0.178284 60.759757,60.759757 0 0 0 -0.28526,0.180351 60.759757,60.759757 0 0 0 -0.2837,0.181385 60.759757,60.759757 0 0 0 -0.28319,0.183451 60.759757,60.759757 0 0 0 -0.28215,0.184999 60.759757,60.759757 0 0 0 -0.2806,0.186553 60.759757,60.759757 0 0 0 -0.28009,0.187587 60.759757,60.759757 0 0 0 -0.27853,0.18965 60.759757,60.759757 0 0 0 -0.27802,0.191204 60.759757,60.759757 0 0 0 -0.27699,0.192752 60.759757,60.759757 0 0 0 -0.27543,0.193789 60.759757,60.759757 0 0 0 -0.27441,0.195852 60.759757,60.759757 0 0 0 -0.27388,0.196887 60.759757,60.759757 0 0 0 -0.27234,0.198956 60.759757,60.759757 0 0 0 -0.2713,0.199986 60.759757,60.759757 0 0 0 -0.26975,0.202057 60.759757,60.759757 0 0 0 -0.26923,0.203086 60.759757,60.759757 0 0 0 -0.26769,0.204639 60.759757,60.759757 0 0 0 -0.26716,0.20619 60.759757,60.759757 0 0 0 -0.26562,0.20774 60.759757,60.759757 0 0 0 -0.26407,0.209288 60.759757,60.759757 0 0 0 -0.26355,0.210323 60.759757,60.759757 0 0 0 -0.262,0.211873 60.759757,60.759757 0 0 0 -0.26096,0.213942 60.759757,60.759757 0 0 0 -0.25994,0.214455 60.759757,60.759757 0 0 0 -0.25838,0.216525 60.759757,60.759757 0 0 0 -0.25735,0.218075 60.759757,60.759757 0 0 0 -0.25631,0.219109 60.759757,60.759757 0 0 0 -0.25477,0.220657 60.759757,60.759757 0 0 0 -0.2537303,0.22221 60.759757,60.759757 0 0 0 -0.25269,0.223243 60.759757,60.759757 0 0 0 -0.25115,0.22479 60.759757,60.759757 0 0 0 -0.2496,0.226343 60.759757,60.759757 0 0 0 -0.24908,0.227893 60.759757,60.759757 0 0 0 -0.24701,0.228928 60.759757,60.759757 0 0 0 -0.2465,0.230476 60.759757,60.759757 0 0 0 -0.24495,0.231511 60.759757,60.759757 0 0 0 -0.24339,0.233061 60.759757,60.759757 0 0 0 -0.24237,0.234611 60.759757,60.759757 0 0 0 -0.24081,0.235643 60.759757,60.759757 0 0 0 -0.23977,0.237196 60.759757,60.759757 0 0 0 -0.23823,0.238745 60.759757,60.759757 0 0 0 -0.2372,0.239262 60.759757,60.759757 0 0 0 -0.23564,0.241329 60.759757,60.759757 0 0 0 -0.23461,0.242361 60.759757,60.759757 0 0 0 -0.23255,0.243914 60.759757,60.759757 0 0 0 -0.23202,0.244946 60.759757,60.759757 0 0 0 -0.008,0.0083 v 16.189677 a 51.687655,51.795412 0 0 1 0.0703,-0.121438 51.687655,51.795412 0 0 1 0.15762,-0.268201 51.687655,51.795412 0 0 1 0.15968,-0.267684 51.687655,51.795412 0 0 1 0.16071,-0.26665 51.687655,51.795412 0 0 1 0.16278,-0.265101 51.687655,51.795412 0 0 1 0.16382,-0.264584 51.687655,51.795412 0 0 1 0.16588,-0.263549 51.687655,51.795412 0 0 1 0.16691,-0.262517 51.687655,51.795412 0 0 1 0.16898,-0.261482 51.687655,51.795412 0 0 1 0.17054,-0.260451 51.687655,51.795412 0 0 1 0.17208,-0.259413 51.687655,51.795412 0 0 1 0.17312,-0.258384 51.687655,51.795412 0 0 1 0.17518,-0.257347 51.687655,51.795412 0 0 1 0.17673,-0.256315 51.687655,51.795412 0 0 1 0.17828,-0.255283 51.687655,51.795412 0 0 1 0.17932,-0.254246 51.687655,51.795412 0 0 1 0.18139,-0.253217 51.687655,51.795412 0 0 1 0.18242,-0.251664 51.687655,51.795412 0 0 1 0.18448,-0.251148 51.687655,51.795412 0 0 1 0.18552,-0.249597 51.687655,51.795412 0 0 1 0.18758,-0.248563 51.687655,51.795412 0 0 1 0.18862,-0.247531 51.687655,51.795412 0 0 1 0.19017,-0.246496 51.687655,51.795412 0 0 1 0.19172,-0.244946 51.687655,51.795412 0 0 1 0.1927503,-0.243912 51.687655,51.795412 0 0 1 0.19482,-0.242879 51.687655,51.795412 0 0 1 0.19586,-0.241845 51.687655,51.795412 0 0 1 0.1974,-0.240297 51.687655,51.795412 0 0 1 0.19895,-0.23926 51.687655,51.795412 0 0 1 0.20051,-0.238229 51.687655,51.795412 0 0 1 0.20154,-0.237196 51.687655,51.795412 0 0 1 0.2036,-0.235643 51.687655,51.795412 0 0 1 0.20464,-0.234096 51.687655,51.795412 0 0 1 0.20568,-0.233576 51.687655,51.795412 0 0 1 0.20773,-0.231511 51.687655,51.795412 0 0 1 0.20878,-0.230994 51.687655,51.795412 0 0 1 0.2098,-0.229444 51.687655,51.795412 0 0 1 0.21188,-0.227891 51.687655,51.795412 0 0 1 0.2129,-0.227378 51.687655,51.795412 0 0 1 0.21394,-0.225308 51.687655,51.795412 0 0 1 0.21601,-0.224277 51.687655,51.795412 0 0 1 0.21704,-0.223242 51.687655,51.795412 0 0 1 0.21808,-0.221692 51.687655,51.795412 0 0 1 0.21962,-0.220141 51.687655,51.795412 0 0 1 0.22118,-0.21911 51.687655,51.795412 0 0 1 0.2222,-0.217556 51.687655,51.795412 0 0 1 0.22325,-0.216524 51.687655,51.795412 0 0 1 0.22479,-0.214974 51.687655,51.795412 0 0 1 0.22634,-0.21394 51.687655,51.795412 0 0 1 0.22738,-0.212391 51.687655,51.795412 0 0 1 0.22893,-0.210839 51.687655,51.795412 0 0 1 0.22944,-0.209291 51.687655,51.795412 0 0 1 0.23151,-0.208256 51.687655,51.795412 0 0 1 0.23254,-0.206706 51.687655,51.795412 0 0 1 0.23358,-0.205155 51.687655,51.795412 0 0 1 0.23461,-0.204121 51.687655,51.795412 0 0 1 0.23616,-0.202572 51.687655,51.795412 0 0 1 0.23771,-0.20102 51.687655,51.795412 0 0 1 0.23823,-0.199988 51.687655,51.795412 0 0 1 0.23978,-0.197922 51.687655,51.795412 0 0 1 0.24081,-0.196887 51.687655,51.795412 0 0 1 0.24236,-0.195336 51.687655,51.795412 0 0 1 0.2434,-0.193787 51.687655,51.795412 0 0 1 0.24443,-0.192238 51.687655,51.795412 0 0 1 0.24547,-0.191201 51.687655,51.795412 0 0 1 0.246488,-0.189137 51.687655,51.795412 0 0 1 0.24805,-0.188101 51.687655,51.795412 0 0 1 0.24908,-0.186552 51.687655,51.795412 0 0 1 0.25011,-0.185002 51.687655,51.795412 0 0 1 0.25115,-0.183452 51.687655,51.795412 0 0 1 0.25218,-0.181901 51.687655,51.795412 0 0 1 0.25321,-0.18035 51.687655,51.795412 0 0 1 0.25477,-0.1788 51.687655,51.795412 0 0 1 0.25528,-0.17725 51.687655,51.795412 0 0 1 0.25683,-0.175702 51.687655,51.795412 0 0 1 0.25735,-0.174149 51.687655,51.795412 0 0 1 0.2589,-0.172598 51.687655,51.795412 0 0 1 0.25942,-0.17105 51.687655,51.795412 0 0 1 0.26096,-0.169498 51.687655,51.795412 0 0 1 0.26149,-0.168465 51.687655,51.795412 0 0 1 0.26303,-0.165881 51.687655,51.795412 0 0 1 0.26355,-0.164848 51.687655,51.795412 0 0 1 0.26458,-0.163299 51.687655,51.795412 0 0 1 0.26562,-0.161747 51.687655,51.795412 0 0 1 0.26665,-0.160198 51.687655,51.795412 0 0 1 0.26768,-0.158128 51.687655,51.795412 0 0 1 0.26872,-0.15658 51.687655,51.795412 0 0 1 0.26924,-0.155546 51.687655,51.795412 0 0 1 0.27078,-0.15348 51.687655,51.795412 0 0 1 0.2713,-0.151929 51.687655,51.795412 0 0 1 0.27234,-0.150378 51.687655,51.795412 0 0 1 0.27285,-0.14831 51.687655,51.795412 0 0 1 0.27388,-0.147277 51.687655,51.795412 0 0 1 0.27492,-0.145212 51.687655,51.795412 0 0 1 0.27595,-0.14366 51.687655,51.795412 0 0 1 0.27647,-0.142111 51.687655,51.795412 0 0 1 0.2775,-0.140044 51.687655,51.795412 0 0 1 0.27854,-0.138491 51.687655,51.795412 0 0 1 0.27905,-0.136943 51.687655,51.795412 0 0 1 0.28009,-0.135392 51.687655,51.795412 0 0 1 0.2806,-0.133842 51.687655,51.795412 0 0 1 0.28164,-0.131776 51.687655,51.795412 0 0 1 0.28215,-0.130223 51.687655,51.795412 0 0 1 0.28319,-0.128675 51.687655,51.795412 0 0 1 0.28422,-0.126608 51.687655,51.795412 0 0 1 0.28422,-0.125055 51.687655,51.795412 0 0 1 0.28577,-0.123508 51.687655,51.795412 0 0 1 0.28577,-0.121441 51.687655,51.795412 0 0 1 0.2868,-0.119888 51.687655,51.795412 0 0 1 0.28784,-0.11834 51.687655,51.795412 0 0 1 0.28836,-0.116271 51.687655,51.795412 0 0 1 0.28887,-0.114721 51.687655,51.795412 0 0 1 0.28939,-0.113173 51.687655,51.795412 0 0 1 0.29042,-0.111104 51.687655,51.795412 0 0 1 0.29094,-0.109553 51.687655,51.795412 0 0 1 0.29197,-0.107487 51.687655,51.795412 0 0 1 0.29197,-0.105936 51.687655,51.795412 0 0 1 0.29301,-0.104386 51.687655,51.795412 0 0 1 0.29352,-0.10232 51.687655,51.795412 0 0 1 0.29404,-0.100769 51.687655,51.795412 0 0 1 0.29455,-0.0987 51.687655,51.795412 0 0 1 0.29559,-0.09715 51.687655,51.795412 0 0 1 0.29559,-0.0956 51.687655,51.795412 0 0 1 0.29662,-0.09354 51.687655,51.795412 0 0 1 0.29714,-0.09147 51.687655,51.795412 0 0 1 0.29766,-0.08992 51.687655,51.795412 0 0 1 0.29817,-0.08837 51.687655,51.795412 0 0 1 0.29818,-0.0863 51.687655,51.795412 0 0 1 0.2992,-0.08475 51.687655,51.795412 0 0 1 0.29972,-0.08268 51.687655,51.795412 0 0 1 0.30024,-0.08061 51.687655,51.795412 0 0 1 0.30076,-0.07958 51.687655,51.795412 0 0 1 0.30076,-0.077 51.687655,51.795412 0 0 1 0.30179,-0.07545 51.687655,51.795412 0 0 1 0.30179,-0.0739 51.687655,51.795412 0 0 1 0.30231,-0.07183 51.687655,51.795412 0 0 1 0.30282,-0.07028 51.687655,51.795412 0 0 1 0.30334,-0.06822 51.687655,51.795412 0 0 1 0.30386,-0.06614 51.687655,51.795412 0 0 1 0.30386,-0.0646 51.687655,51.795412 0 0 1 0.30437,-0.06253 51.687655,51.795412 0 0 1 0.30489,-0.06098 51.687655,51.795412 0 0 1 0.30541,-0.05891 51.687655,51.795412 0 0 1 0.30541,-0.05736 51.687655,51.795412 0 0 1 0.30592,-0.05529 51.687655,51.795412 0 0 1 0.30593,-0.05374 51.687655,51.795412 0 0 1 0.30644,-0.05168 51.687655,51.795412 0 0 1 0.30695,-0.04961 51.687655,51.795412 0 0 1 0.30696,-0.04806 51.687655,51.795412 0 0 1 0.30748,-0.04651 51.687655,51.795412 0 0 1 0.30747,-0.04392 51.687655,51.795412 0 0 1 0.30799,-0.04238 51.687655,51.795412 0 0 1 0.30851,-0.04082 51.687655,51.795412 0 0 1 0.30799,-0.03876 51.687655,51.795412 0 0 1 0.30903,-0.03669 51.687655,51.795412 0 0 1 0.30851,-0.03514 51.687655,51.795412 0 0 1 0.30902,-0.03307 51.687655,51.795412 0 0 1 0.30954,-0.031 51.687655,51.795412 0 0 1 0.30955,-0.02946 51.687655,51.795412 0 0 1 0.30954,-0.02791 51.687655,51.795412 0 0 1 0.30954,-0.02532 51.687655,51.795412 0 0 1 0.31006,-0.02377 51.687655,51.795412 0 0 1 0.31006,-0.02222 51.687655,51.795412 0 0 1 0.31005,-0.02015 51.687655,51.795412 0 0 1 0.31006,-0.01809 51.687655,51.795412 0 0 1 0.31058,-0.01654 51.687655,51.795412 0 0 1 0.31057,-0.01447 51.687655,51.795412 0 0 1 0.31058,-0.0124 51.687655,51.795412 0 0 1 0.31058,-0.01085 51.687655,51.795412 0 0 1 0.31057,-0.0088 51.687655,51.795412 0 0 1 0.31057,-0.0067 51.687655,51.795412 0 0 1 0.3111,-0.0052 51.687655,51.795412 0 0 1 0.31057,-0.0031 51.687655,51.795412 0 0 1 0.31058,-0.0016 51.687655,51.795412 0 0 1 0.0703,0 51.687655,51.795412 0 0 1 0.31109,0.001 51.687655,51.795412 0 0 1 0.31058,0.0026 51.687655,51.795412 0 0 1 0.31109,0.0047 51.687655,51.795412 0 0 1 0.31057,0.0067 51.687655,51.795412 0 0 1 0.31058,0.0083 51.687655,51.795412 0 0 1 0.31057,0.01033 51.687655,51.795412 0 0 1 0.31058,0.0124 51.687655,51.795412 0 0 1 0.31058,0.01395 51.687655,51.795412 0 0 1 0.31057,0.01602 51.687655,51.795412 0 0 1 0.31006,0.01757 51.687655,51.795412 0 0 1 0.31006,0.01964 51.687655,51.795412 0 0 1 0.31006,0.0217 51.687655,51.795412 0 0 1 0.31005,0.02325 51.687655,51.795412 0 0 1 0.31006,0.02532 51.687655,51.795412 0 0 1 0.30954,0.02739 51.687655,51.795412 0 0 1 0.30955,0.02894 51.687655,51.795412 0 0 1 0.30902,0.03049 51.687655,51.795412 0 0 1 0.30903,0.03307 51.687655,51.795412 0 0 1 0.30902,0.03462 51.687655,51.795412 0 0 1 0.30851,0.03617 51.687655,51.795412 0 0 1 0.30851,0.03824 51.687655,51.795412 0 0 1 0.30851,0.04031 51.687655,51.795412 0 0 1 0.30799,0.04186 51.687655,51.795412 0 0 1 0.30747,0.04392 51.687655,51.795412 0 0 1 0.30748,0.04599 51.687655,51.795412 0 0 1 0.30695,0.04754 51.687655,51.795412 0 0 1 0.30696,0.04909 51.687655,51.795412 0 0 1 0.30644,0.05116 51.687655,51.795412 0 0 1 0.30645,0.05323 51.687655,51.795412 0 0 1 0.30592,0.05529 51.687655,51.795412 0 0 1 0.30541,0.05684 51.687655,51.795412 0 0 1 0.30541,0.0584 51.687655,51.795412 0 0 1 0.30489,0.06046 51.687655,51.795412 0 0 1 0.30437,0.06253 51.687655,51.795412 0 0 1 0.30438,0.06408 51.687655,51.795412 0 0 1 0.30385,0.06563 51.687655,51.795412 0 0 1 0.30334,0.06822 51.687655,51.795412 0 0 1 0.30283,0.06925 51.687655,51.795412 0 0 1 0.30231,0.07183 51.687655,51.795412 0 0 1 0.3023,0.07338 51.687655,51.795412 0 0 1 0.30179,0.07493 51.687655,51.795412 0 0 1 0.30076,0.077 51.687655,51.795412 0 0 1 0.30076,0.07855 51.687655,51.795412 0 0 1 0.30023,0.08061 51.687655,51.795412 0 0 1 0.29973,0.08217 51.687655,51.795412 0 0 1 0.29921,0.08423 51.687655,51.795412 0 0 1 0.2992,0.0863 51.687655,51.795412 0 0 1 0.29818,0.08733 51.687655,51.795412 0 0 1 0.29765,0.08992 51.687655,51.795412 0 0 1 0.29714,0.09095 51.687655,51.795412 0 0 1 0.29662,0.09353 51.687655,51.795412 0 0 1 0.29559,0.09457 51.687655,51.795412 0 0 1 0.29559,0.09664 51.687655,51.795412 0 0 1 0.29508,0.0987 51.687655,51.795412 0 0 1 0.29403,0.100254 51.687655,51.795412 0 0 1 0.29353,0.101803 51.687655,51.795412 0 0 1 0.29352,0.103868 51.687655,51.795412 0 0 1 0.29197,0.105936 51.687655,51.795412 0 0 1 0.29197,0.106971 51.687655,51.795412 0 0 1 0.29094,0.109038 51.687655,51.795412 0 0 1 0.29042,0.111104 51.687655,51.795412 0 0 1 0.28991,0.112654 51.687655,51.795412 0 0 1 0.28938,0.114205 51.687655,51.795412 0 0 1 0.28836,0.115755 51.687655,51.795412 0 0 1 0.28784,0.117824 51.687655,51.795412 0 0 1 0.2868,0.119888 51.687655,51.795412 0 0 1 0.28629,0.120923 51.687655,51.795412 0 0 1 0.28577,0.122991 51.687655,51.795412 0 0 1 0.28474,0.125055 51.687655,51.795412 0 0 1 0.2837,0.126093 51.687655,51.795412 0 0 1 0.2837,0.128156 51.687655,51.795412 0 0 1 0.28216,0.129707 51.687655,51.795412 0 0 1 0.28163,0.131776 51.687655,51.795412 0 0 1 0.28112,0.133326 51.687655,51.795412 0 0 1 0.28009,0.134874 51.687655,51.795412 0 0 1 0.27957,0.136427 51.687655,51.795412 0 0 1 0.27853,0.138493 51.687655,51.795412 0 0 1 0.27751,0.139526 51.687655,51.795412 0 0 1 0.27698,0.141594 51.687655,51.795412 0 0 1 0.27596,0.143661 51.687655,51.795412 0 0 1 0.27491,0.144693 51.687655,51.795412 0 0 1 0.27441,0.146761 51.687655,51.795412 0 0 1 0.27336,0.14831 51.687655,51.795412 0 0 1 0.27234,0.149863 51.687655,51.795412 0 0 1 0.2713,0.151413 51.687655,51.795412 0 0 1 0.27078,0.152961 51.687655,51.795412 0 0 1 0.26976,0.15503 51.687655,51.795412 0 0 1 0.26871,0.15658 51.687655,51.795412 0 0 1 0.26769,0.158128 51.687655,51.795412 0 0 1 0.26716,0.159163 51.687655,51.795412 0 0 1 0.26562,0.161232 51.687655,51.795412 0 0 1 0.2651,0.163298 51.687655,51.795412 0 0 1 0.26407,0.16433 51.687655,51.795412 0 0 1 0.26303,0.16588 51.687655,51.795412 0 0 1 0.262,0.167434 51.687655,51.795412 0 0 1 0.26045,0.169497 51.687655,51.795412 0 0 1 0.25993,0.170532 51.687655,51.795412 0 0 1 0.2589,0.172601 51.687655,51.795412 0 0 1 0.25787,0.173633 51.687655,51.795412 0 0 1 0.25683,0.175699 51.687655,51.795412 0 0 1 0.2558,0.176734 51.687655,51.795412 0 0 1 0.25476,0.1788 51.687655,51.795412 0 0 1 0.25373,0.179835 51.687655,51.795412 0 0 1 0.2527,0.181382 51.687655,51.795412 0 0 1 0.25115,0.183452 51.687655,51.795412 0 0 1 0.25063,0.184486 51.687655,51.795412 0 0 1 0.24908,0.186034 51.687655,51.795412 0 0 1 0.24804,0.187587 51.687655,51.795412 0 0 1 0.24702,0.189134 51.687655,51.795412 0 0 1 0.24598,0.190686 51.687655,51.795412 0 0 1 0.24443,0.191719 51.687655,51.795412 0 0 1 0.24339,0.193789 51.687655,51.795412 0 0 1 0.24237,0.194818 51.687655,51.795412 0 0 1 0.24132,0.196371 51.687655,51.795412 0 0 1 0.2403,0.197922 51.687655,51.795412 0 0 1 0.23875,0.199469 51.687655,51.795412 0 0 1 0.23719,0.201023 51.687655,51.795412 0 0 1 0.23668,0.202054 51.687655,51.795412 0 0 1 0.23513,0.203605 51.687655,51.795412 0 0 1 0.23409,0.205155 51.687655,51.795412 0 0 1 0.23254,0.20619 51.687655,51.795412 0 0 1 0.23152,0.20774 51.687655,51.795412 0 0 1 0.23047,0.209288 51.687655,51.795412 0 0 1 0.22893,0.210841 51.687655,51.795412 0 0 1 0.22737,0.211873 51.687655,51.795412 0 0 1 0.22635,0.213424 51.687655,51.795412 0 0 1 0.22531,0.214458 51.687655,51.795412 0 0 1 0.22375,0.216524 51.687655,51.795412 0 0 1 0.22273,0.217041 51.687655,51.795412 0 0 1 0.22118,0.219106 51.687655,51.795412 0 0 1 0.22014,0.219626 51.687655,51.795412 0 0 1 0.21859,0.221691 51.687655,51.795412 0 0 1 0.21704,0.222727 51.687655,51.795412 0 0 1 0.21601,0.223758 51.687655,51.795412 0 0 1 0.21446,0.225308 51.687655,51.795412 0 0 1 0.21342,0.226862 51.687655,51.795412 0 0 1 0.21187,0.227891 51.687655,51.795412 0 0 1 0.21032,0.228928 51.687655,51.795412 0 0 1 0.20929,0.230476 51.687655,51.795412 0 0 1 0.20774,0.232029 51.687655,51.795412 0 0 1 0.20619,0.232542 51.687655,51.795412 0 0 1 0.20463,0.234611 51.687655,51.795412 0 0 1 0.20362,0.235128 51.687655,51.795412 0 0 1 0.20204,0.236677 51.687655,51.795412 0 0 1 0.20103,0.237713 51.687655,51.795412 0 0 1 0.19897,0.239262 51.687655,51.795412 0 0 1 0.19791,0.240295 51.687655,51.795412 0 0 1 0.19637,0.241329 51.687655,51.795412 0 0 1 0.19481,0.242364 51.687655,51.795412 0 0 1 0.19328,0.243911 51.687655,51.795412 0 0 1 0.19225,0.244946 51.687655,51.795412 0 0 1 0.19068,0.245981 51.687655,51.795412 0 0 1 0.1886,0.247531 51.687655,51.795412 0 0 1 0.18759,0.248046 51.687655,51.795412 0 0 1 0.18605,0.249598 51.687655,51.795412 0 0 1 0.185,0.250629 51.687655,51.795412 0 0 1 0.18293,0.251664 51.687655,51.795412 0 0 1 0.18137,0.252698 51.687655,51.795412 0 0 1 0.17984,0.254249 51.687655,51.795412 0 0 1 0.17881,0.254764 51.687655,51.795412 0 0 1 0.17674,0.256315 51.687655,51.795412 0 0 1 0.17568,0.256831 51.687655,51.795412 0 0 1 0.17365,0.258385 51.687655,51.795412 0 0 1 0.17208,0.258897 51.687655,51.795412 0 0 1 0.17105,0.26045 51.687655,51.795412 0 0 1 0.16897,0.260964 51.687655,51.795412 0 0 1 0.16795,0.262517 51.687655,51.795412 0 0 1 0.16587,0.263033 51.687655,51.795412 0 0 1 0.16433,0.264583 51.687655,51.795412 0 0 1 0.1628,0.265102 51.687655,51.795412 0 0 1 0.16121,0.266132 51.687655,51.795412 0 0 1 0.15971,0.267684 51.687655,51.795412 0 0 1 0.15811,0.267684 51.687655,51.795412 0 0 1 0.15658,0.269235 51.687655,51.795412 0 0 1 0.015,0.02636 z m -2.4e-4,67.147866 a 51.687655,51.795412 0 0 1 -0.13644,0.23513 51.687655,51.795412 0 0 1 -0.15761,0.2682 51.687655,51.795412 0 0 1 -0.15915,0.26768 51.687655,51.795412 0 0 1 -0.16074,0.26614 51.687655,51.795412 0 0 1 -0.16277,0.26562 51.687655,51.795412 0 0 1 -0.1638,0.26458 51.687655,51.795412 0 0 1 -0.16589,0.26355 51.687655,51.795412 0 0 1 -0.16743,0.26251 51.687655,51.795412 0 0 1 -0.16846,0.261486 51.687655,51.795412 0 0 1 -0.17053,0.26044 51.687655,51.795412 0 0 1 -0.17208,0.25942 51.687655,51.795412 0 0 1 -0.17365,0.25838 51.687655,51.795412 0 0 1 -0.17518,0.25735 51.687655,51.795412 0 0 1 -0.17621,0.25632 51.687655,51.795412 0 0 1 -0.17828,0.25528 51.687655,51.795412 0 0 1 -0.17983,0.25425 51.687655,51.795412 0 0 1 -0.18087,0.25269 51.687655,51.795412 0 0 1 -0.18294,0.25218 51.687655,51.795412 0 0 1 -0.18396,0.25115 51.687655,51.795412 0 0 1 -0.18606,0.2496 51.687655,51.795412 0 0 1 -0.18706,0.24856 51.687655,51.795412 0 0 1 -0.18862,0.24753 51.687655,51.795412 0 0 1 -0.19015,0.2465 51.687655,51.795412 0 0 1 -0.19172,0.24495 51.687655,51.795412 0 0 1 -0.19328,0.24391 51.687655,51.795412 0 0 1 -0.19431,0.24288 51.687655,51.795412 0 0 1 -0.19637,0.24184 51.687655,51.795412 0 0 1 -0.19741,0.2403 51.687655,51.795412 0 0 1 -0.19894,0.23926 51.687655,51.795412 0 0 1 -0.2,0.23823 51.687655,51.795412 0 0 1 -0.20206,0.2372 51.687655,51.795412 0 0 1 -0.20307,0.23564 51.687655,51.795412 0 0 1 -0.20465,0.23409 51.687655,51.795412 0 0 1 -0.20619,0.23358 51.687655,51.795412 0 0 1 -0.20722,0.23151 51.687655,51.795412 0 0 1 -0.20877,0.231 51.687655,51.795412 0 0 1 -0.21032,0.22944 51.687655,51.795412 0 0 1 -0.21136,0.22789 51.687655,51.795412 0 0 1 -0.21291,0.22738 51.687655,51.795412 0 0 1 -0.21445,0.22531 51.687655,51.795412 0 0 1 -0.21549,0.22427 51.687655,51.795412 0 0 1 -0.21704,0.22325 51.687655,51.795412 0 0 1 -0.21808,0.22169 51.687655,51.795412 0 0 1 -0.21962,0.22014 51.687655,51.795412 0 0 1 -0.22118,0.21911 51.687655,51.795412 0 0 1 -0.22221,0.21756 51.687655,51.795412 0 0 1 -0.22376,0.21652 51.687655,51.795412 0 0 1 -0.22479,0.21497 51.687655,51.795412 0 0 1 -0.22583,0.21394 51.687655,51.795412 0 0 1 -0.22737,0.21239 51.687655,51.795412 0 0 1 -0.22893,0.21084 51.687655,51.795412 0 0 1 -0.22996,0.20929 51.687655,51.795412 0 0 1 -0.23099,0.20826 51.687655,51.795412 0 0 1 -0.23255,0.20671 51.687655,51.795412 0 0 1 -0.23358,0.20515 51.687655,51.795412 0 0 1 -0.23512,0.20412 51.687655,51.795412 0 0 1 -0.23616,0.20257 51.687655,51.795412 0 0 1 -0.2372,0.20102 51.687655,51.795412 0 0 1 -0.23874,0.19999 51.687655,51.795412 0 0 1 -0.23978,0.19792 51.687655,51.795412 0 0 1 -0.24081,0.19689 51.687655,51.795412 0 0 1 -0.24185,0.19534 51.687655,51.795412 0 0 1 -0.2434,0.19378 51.687655,51.795412 0 0 1 -0.24442,0.19224 51.687655,51.795412 0 0 1 -0.24547,0.1912 51.687655,51.795412 0 0 1 -0.24701,0.18914 51.687655,51.795412 0 0 1 -0.24753,0.1881 51.687655,51.795412 0 0 1 -0.24908,0.18655 51.687655,51.795412 0 0 1 -0.25012,0.18501 51.687655,51.795412 0 0 1 -0.25114,0.18293 51.687655,51.795412 0 0 1 -0.25218,0.18242 51.687655,51.795412 0 0 1 -0.25373,0.18035 51.687655,51.795412 0 0 1 -0.25425,0.1788 51.687655,51.795412 0 0 1 -0.25529,0.17725 51.687655,51.795412 0 0 1 -0.25683,0.1757 51.687655,51.795412 0 0 1 -0.25786,0.17415 51.687655,51.795412 0 0 1 -0.25838,0.1726 51.687655,51.795412 0 0 1 -0.25994,0.17105 51.687655,51.795412 0 0 1 -0.26045,0.16949 51.687655,51.795412 0 0 1 -0.262,0.16795 51.687655,51.795412 0 0 1 -0.26251,0.1664 51.687655,51.795412 0 0 1 -0.26355,0.16485 51.687655,51.795412 0 0 1 -0.2651,0.1633 51.687655,51.795412 0 0 1 -0.26562,0.16174 51.687655,51.795412 0 0 1 -0.26665,0.1602 51.687655,51.795412 0 0 1 -0.26768,0.15813 51.687655,51.795412 0 0 1 -0.2682,0.15658 51.687655,51.795412 0 0 1 -0.26976,0.15555 51.687655,51.795412 0 0 1 -0.27026,0.15347 51.687655,51.795412 0 0 1 -0.2713,0.15193 51.687655,51.795412 0 0 1 -0.27234,0.15038 51.687655,51.795412 0 0 1 -0.27337,0.14831 51.687655,51.795412 0 0 1 -0.27388,0.14728 51.687655,51.795412 0 0 1 -0.27492,0.14521 51.687655,51.795412 0 0 1 -0.27595,0.14366 51.687655,51.795412 0 0 1 -0.27647,0.1416 51.687655,51.795412 0 0 1 -0.2775,0.14056 51.687655,51.795412 0 0 1 -0.27802,0.13849 51.687655,51.795412 0 0 1 -0.27906,0.13694 51.687655,51.795412 0 0 1 -0.28008,0.13539 51.687655,51.795412 0 0 1 -0.28112,0.13385 51.687655,51.795412 0 0 1 -0.28112,0.13177 51.687655,51.795412 0 0 1 -0.28267,0.13022 51.687655,51.795412 0 0 1 -0.28319,0.12868 51.687655,51.795412 0 0 1 -0.2837,0.12661 51.687655,51.795412 0 0 1 -0.28474,0.12505 51.687655,51.795412 0 0 1 -0.28525,0.12351 51.687655,51.795412 0 0 1 -0.28629,0.12144 51.687655,51.795412 0 0 1 -0.2868,0.11989 51.687655,51.795412 0 0 1 -0.28733,0.11834 51.687655,51.795412 0 0 1 -0.28835,0.11627 51.687655,51.795412 0 0 1 -0.28887,0.11472 51.687655,51.795412 0 0 1 -0.28991,0.11317 51.687655,51.795412 0 0 1 -0.29042,0.11111 51.687655,51.795412 0 0 1 -0.29094,0.10955 51.687655,51.795412 0 0 1 -0.29145,0.10749 51.687655,51.795412 0 0 1 -0.29249,0.10594 51.687655,51.795412 0 0 1 -0.29249,0.10438 51.687655,51.795412 0 0 1 -0.29352,0.10232 51.687655,51.795412 0 0 1 -0.29456,0.10077 51.687655,51.795412 0 0 1 -0.29455,0.0987 51.687655,51.795412 0 0 1 -0.29507,0.0971 51.687655,51.795412 0 0 1 -0.29611,0.0956 51.687655,51.795412 0 0 1 -0.29662,0.0935 51.687655,51.795412 0 0 1 -0.29663,0.0915 51.687655,51.795412 0 0 1 -0.29765,0.0899 51.687655,51.795412 0 0 1 -0.29817,0.0884 51.687655,51.795412 0 0 1 -0.2987,0.0863 51.687655,51.795412 0 0 1 -0.2992,0.0842 51.687655,51.795412 0 0 1 -0.29972,0.0832 51.687655,51.795412 0 0 1 -0.29973,0.0806 51.687655,51.795412 0 0 1 -0.30075,0.0791 51.687655,51.795412 0 0 1 -0.30128,0.0775 51.687655,51.795412 0 0 1 -0.30127,0.0754 51.687655,51.795412 0 0 1 -0.30231,0.0739 51.687655,51.795412 0 0 1 -0.30231,0.0718 51.687655,51.795412 0 0 1 -0.30282,0.0698 51.687655,51.795412 0 0 1 -0.30334,0.0682 51.687655,51.795412 0 0 1 -0.30334,0.0667 51.687655,51.795412 0 0 1 -0.30438,0.0646 51.687655,51.795412 0 0 1 -0.30437,0.0625 51.687655,51.795412 0 0 1 -0.30489,0.061 51.687655,51.795412 0 0 1 -0.30489,0.0589 51.687655,51.795412 0 0 1 -0.30541,0.0574 51.687655,51.795412 0 0 1 -0.30592,0.0553 51.687655,51.795412 0 0 1 -0.30645,0.0537 51.687655,51.795412 0 0 1 -0.30644,0.0517 51.687655,51.795412 0 0 1 -0.30695,0.0496 51.687655,51.795412 0 0 1 -0.30696,0.0481 51.687655,51.795412 0 0 1 -0.30748,0.046 51.687655,51.795412 0 0 1 -0.30747,0.0444 51.687655,51.795412 0 0 1 -0.30799,0.0424 51.687655,51.795412 0 0 1 -0.308,0.0408 51.687655,51.795412 0 0 1 -0.3085,0.0388 51.687655,51.795412 0 0 1 -0.30851,0.0367 51.687655,51.795412 0 0 1 -0.30903,0.0351 51.687655,51.795412 0 0 1 -0.30902,0.0331 51.687655,51.795412 0 0 1 -0.30903,0.031 51.687655,51.795412 0 0 1 -0.30954,0.0294 51.687655,51.795412 0 0 1 -0.30954,0.0279 51.687655,51.795412 0 0 1 -0.30954,0.0253 51.687655,51.795412 0 0 1 -0.31006,0.0238 51.687655,51.795412 0 0 1 -0.31006,0.0222 51.687655,51.795412 0 0 1 -0.31006,0.0202 51.687655,51.795412 0 0 1 -0.31057,0.0181 51.687655,51.795412 0 0 1 -0.31006,0.016 51.687655,51.795412 0 0 1 -0.31058,0.0145 51.687655,51.795412 0 0 1 -0.31057,0.0129 51.687655,51.795412 0 0 1 -0.31058,0.0109 51.687655,51.795412 0 0 1 -0.31057,0.009 51.687655,51.795412 0 0 1 -0.31109,0.007 51.687655,51.795412 0 0 1 -0.31058,0.005 51.687655,51.795412 0 0 1 -0.31058,0.003 51.687655,51.795412 0 0 1 -0.31109,0.002 51.687655,51.795412 0 0 1 -0.0698,0 51.687655,51.795412 0 0 1 -0.31058,-0.001 51.687655,51.795412 0 0 1 -0.31109,-0.003 51.687655,51.795412 0 0 1 -0.31057,-0.005 51.687655,51.795412 0 0 1 -0.31058,-0.007 51.687655,51.795412 0 0 1 -0.31058,-0.008 51.687655,51.795412 0 0 1 -0.31109,-0.0103 51.687655,51.795412 0 0 1 -0.31057,-0.0124 51.687655,51.795412 0 0 1 -0.31006,-0.014 51.687655,51.795412 0 0 1 -0.31058,-0.016 51.687655,51.795412 0 0 1 -0.31057,-0.0176 51.687655,51.795412 0 0 1 -0.31006,-0.0196 51.687655,51.795412 0 0 1 -0.31006,-0.0217 51.687655,51.795412 0 0 1 -0.31006,-0.0233 51.687655,51.795412 0 0 1 -0.30954,-0.0253 51.687655,51.795412 0 0 1 -0.30954,-0.0269 51.687655,51.795412 0 0 1 -0.30954,-0.0295 51.687655,51.795412 0 0 1 -0.30903,-0.0305 51.687655,51.795412 0 0 1 -0.30954,-0.0331 51.687655,51.795412 0 0 1 -0.30851,-0.0341 51.687655,51.795412 0 0 1 -0.30902,-0.0367 51.687655,51.795412 0 0 1 -0.30851,-0.0382 51.687655,51.795412 0 0 1 -0.30799,-0.0403 51.687655,51.795412 0 0 1 -0.308,-0.0419 51.687655,51.795412 0 0 1 -0.30747,-0.0439 51.687655,51.795412 0 0 1 -0.30747,-0.0455 51.687655,51.795412 0 0 1 -0.30748,-0.0475 51.687655,51.795412 0 0 1 -0.30696,-0.0496 51.687655,51.795412 0 0 1 -0.30644,-0.0512 51.687655,51.795412 0 0 1 -0.30592,-0.0532 51.687655,51.795412 0 0 1 -0.30593,-0.0548 51.687655,51.795412 0 0 1 -0.30592,-0.0568 51.687655,51.795412 0 0 1 -0.30489,-0.0589 51.687655,51.795412 0 0 1 -0.30489,-0.0605 51.687655,51.795412 0 0 1 -0.30489,-0.062 51.687655,51.795412 0 0 1 -0.30386,-0.0646 51.687655,51.795412 0 0 1 -0.30386,-0.0656 51.687655,51.795412 0 0 1 -0.30334,-0.0677 51.687655,51.795412 0 0 1 -0.30282,-0.0698 51.687655,51.795412 0 0 1 -0.30283,-0.0713 51.687655,51.795412 0 0 1 -0.30179,-0.0734 51.687655,51.795412 0 0 1 -0.30179,-0.0755 51.687655,51.795412 0 0 1 -0.30127,-0.0765 51.687655,51.795412 0 0 1 -0.30076,-0.0791 51.687655,51.795412 0 0 1 -0.30024,-0.0806 51.687655,51.795412 0 0 1 -0.29972,-0.0822 51.687655,51.795412 0 0 1 -0.29921,-0.0842 51.687655,51.795412 0 0 1 -0.29869,-0.0858 51.687655,51.795412 0 0 1 -0.29817,-0.0879 51.687655,51.795412 0 0 1 -0.29766,-0.0894 51.687655,51.795412 0 0 1 -0.29714,-0.0915 51.687655,51.795412 0 0 1 -0.29662,-0.093 51.687655,51.795412 0 0 1 -0.29611,-0.0951 51.687655,51.795412 0 0 1 -0.29558,-0.0966 51.687655,51.795412 0 0 1 -0.29456,-0.0987 51.687655,51.795412 0 0 1 -0.29456,-0.10025 51.687655,51.795412 0 0 1 -0.29352,-0.1018 51.687655,51.795412 0 0 1 -0.293,-0.10387 51.687655,51.795412 0 0 1 -0.29249,-0.10542 51.687655,51.795412 0 0 1 -0.29146,-0.10749 51.687655,51.795412 0 0 1 -0.29145,-0.10904 51.687655,51.795412 0 0 1 -0.29042,-0.11058 51.687655,51.795412 0 0 1 -0.28991,-0.11266 51.687655,51.795412 0 0 1 -0.28887,-0.1142 51.687655,51.795412 0 0 1 -0.28835,-0.11628 51.687655,51.795412 0 0 1 -0.28784,-0.11782 51.687655,51.795412 0 0 1 -0.28681,-0.11937 51.687655,51.795412 0 0 1 -0.28628,-0.12144 51.687655,51.795412 0 0 1 -0.28578,-0.12299 51.687655,51.795412 0 0 1 -0.28473,-0.12454 51.687655,51.795412 0 0 1 -0.28422,-0.12661 51.687655,51.795412 0 0 1 -0.28319,-0.12816 51.687655,51.795412 0 0 1 -0.28267,-0.1297 51.687655,51.795412 0 0 1 -0.28163,-0.13126 51.687655,51.795412 0 0 1 -0.28112,-0.13333 51.687655,51.795412 0 0 1 -0.28009,-0.13487 51.687655,51.795412 0 0 1 -0.27906,-0.13694 51.687655,51.795412 0 0 1 -0.27853,-0.13798 51.687655,51.795412 0 0 1 -0.2775,-0.14004 51.687655,51.795412 0 0 1 -0.27699,-0.1416 51.687655,51.795412 0 0 1 -0.27595,-0.14314 51.687655,51.795412 0 0 1 -0.27492,-0.14521 51.687655,51.795412 0 0 1 -0.2744,-0.14625 51.687655,51.795412 0 0 1 -0.27337,-0.14831 51.687655,51.795412 0 0 1 -0.27233,-0.14986 51.687655,51.795412 0 0 1 -0.27182,-0.15193 51.687655,51.795412 0 0 1 -0.27027,-0.15296 51.687655,51.795412 0 0 1 -0.26975,-0.15451 51.687655,51.795412 0 0 1 -0.26872,-0.15658 51.687655,51.795412 0 0 1 -0.2682,-0.15813 51.687655,51.795412 0 0 1 -0.26665,-0.15968 51.687655,51.795412 0 0 1 -0.26613,-0.16123 51.687655,51.795412 0 0 1 -0.26459,-0.16278 51.687655,51.795412 0 0 1 -0.26406,-0.16433 51.687655,51.795412 0 0 1 -0.26304,-0.1664 51.687655,51.795412 0 0 1 -0.26199,-0.16744 51.687655,51.795412 0 0 1 -0.26097,-0.16898 51.687655,51.795412 0 0 1 -0.25993,-0.17104 51.687655,51.795412 0 0 1 -0.2589,-0.17209 51.687655,51.795412 0 0 1 -0.25787,-0.17415 51.687655,51.795412 0 0 1 -0.25683,-0.17518 51.687655,51.795412 0 0 1 -0.2558,-0.17725 51.687655,51.795412 0 0 1 -0.25476,-0.17829 51.687655,51.795412 0 0 1 -0.25373,-0.17983 51.687655,51.795412 0 0 1 -0.25219,-0.1819 51.687655,51.795412 0 0 1 -0.25166,-0.18293 51.687655,51.795412 0 0 1 -0.25011,-0.18449 51.687655,51.795412 0 0 1 -0.24908,-0.18603 51.687655,51.795412 0 0 1 -0.24857,-0.18759 51.687655,51.795412 0 0 1 -0.246488,-0.18914 51.687655,51.795412 0 0 1 -0.24598,-0.19068 51.687655,51.795412 0 0 1 -0.24495,-0.19224 51.687655,51.795412 0 0 1 -0.2434,-0.19327 51.687655,51.795412 0 0 1 -0.24236,-0.19534 51.687655,51.795412 0 0 1 -0.24133,-0.19636 51.687655,51.795412 0 0 1 -0.23978,-0.19793 51.687655,51.795412 0 0 1 -0.23874,-0.19895 51.687655,51.795412 0 0 1 -0.23771,-0.20102 51.687655,51.795412 0 0 1 -0.23668,-0.20206 51.687655,51.795412 0 0 1 -0.23513,-0.2036 51.687655,51.795412 0 0 1 -0.23358,-0.20516 51.687655,51.795412 0 0 1 -0.23306,-0.20619 51.687655,51.795412 0 0 1 -0.23151,-0.20825 51.687655,51.795412 0 0 1 -0.22996,-0.20929 51.687655,51.795412 0 0 1 -0.22892,-0.21033 51.687655,51.795412 0 0 1 -0.2279,-0.21187 51.687655,51.795412 0 0 1 -0.22634,-0.21342 51.687655,51.795412 0 0 1 -0.22531,-0.21498 51.687655,51.795412 0 0 1 -0.22376,-0.216 51.687655,51.795412 0 0 1 -0.22272,-0.21756 51.687655,51.795412 0 0 1 -0.22118,-0.21859 51.687655,51.795412 0 0 1 -0.21963,-0.22014 51.687655,51.795412 0 0 1 -0.21859,-0.22118 51.687655,51.795412 0 0 1 -0.21755,-0.22272 51.687655,51.795412 0 0 1 -0.21601,-0.22428 51.687655,51.795412 0 0 1 -0.21446,-0.22531 51.687655,51.795412 0 0 1 -0.2129,-0.22634 51.687655,51.795412 0 0 1 -0.21188,-0.22789 51.687655,51.795412 0 0 1 -0.21084,-0.22945 51.687655,51.795412 0 0 1 -0.20877,-0.23047 51.687655,51.795412 0 0 1 -0.20774,-0.23151 51.687655,51.795412 0 0 1 -0.20671,-0.23307 51.687655,51.795412 0 0 1 -0.20464,-0.23409 51.687655,51.795412 0 0 1 -0.2036,-0.23513 51.687655,51.795412 0 0 1 -0.20205,-0.23668 51.687655,51.795412 0 0 1 -0.20051,-0.23771 51.687655,51.795412 0 0 1 -0.19947,-0.23926 51.687655,51.795412 0 0 1 -0.19792,-0.24029 51.687655,51.795412 0 0 1 -0.19637,-0.24133 51.687655,51.795412 0 0 1 -0.19482,-0.24237 51.687655,51.795412 0 0 1 -0.1932703,-0.24391 51.687655,51.795412 0 0 1 -0.19224,-0.24495 51.687655,51.795412 0 0 1 -0.19017,-0.24598 51.687655,51.795412 0 0 1 -0.18913,-0.24753 51.687655,51.795412 0 0 1 -0.18759,-0.24804 51.687655,51.795412 0 0 1 -0.18603,-0.2496 51.687655,51.795412 0 0 1 -0.18449,-0.25063 51.687655,51.795412 0 0 1 -0.18293,-0.25166 51.687655,51.795412 0 0 1 -0.1819,-0.2527 51.687655,51.795412 0 0 1 -0.17984,-0.25425 51.687655,51.795412 0 0 1 -0.1788,-0.25477 51.687655,51.795412 0 0 1 -0.17673,-0.25631 51.687655,51.795412 0 0 1 -0.17518,-0.25683 51.687655,51.795412 0 0 1 -0.17415,-0.25838 51.687655,51.795412 0 0 1 -0.17209,-0.2589 51.687655,51.795412 0 0 1 -0.17105,-0.26045 51.687655,51.795412 0 0 1 -0.16898,-0.261486 51.687655,51.795412 0 0 1 -0.16743,-0.26199 51.687655,51.795412 0 0 1 -0.1664,-0.26355 51.687655,51.795412 0 0 1 -0.16433,-0.26407 51.687655,51.795412 0 0 1 -0.16278,-0.2651 51.687655,51.795412 0 0 1 -0.16123,-0.26665 51.687655,51.795412 0 0 1 -0.15968,-0.26717 51.687655,51.795412 0 0 1 -0.15813,-0.2682 51.687655,51.795412 0 0 1 -0.10594,-0.1819 V 112.938 a 60.759757,60.759757 0 0 0 0.008,0.009 60.759757,60.759757 0 0 0 0.23151,0.24495 60.759757,60.759757 0 0 0 0.23306,0.2434 60.759757,60.759757 0 0 0 0.2341,0.24236 60.759757,60.759757 0 0 0 0.23564,0.24133 60.759757,60.759757 0 0 0 0.2372,0.23978 60.759757,60.759757 0 0 0 0.23823,0.23823 60.759757,60.759757 0 0 0 0.23977,0.23719 60.759757,60.759757 0 0 0 0.24081,0.23564 60.759757,60.759757 0 0 0 0.24237,0.23462 60.759757,60.759757 0 0 0 0.24391,0.23306 60.759757,60.759757 0 0 0 0.24495,0.23202 60.759757,60.759757 0 0 0 0.24598,0.23048 60.759757,60.759757 0 0 0 0.24753,0.22893 60.759757,60.759757 0 0 0 0.24856,0.22737 60.759757,60.759757 0 0 0 0.25012,0.22635 60.759757,60.759757 0 0 0 0.25114,0.22479 60.759757,60.759757 0 0 0 0.25218,0.22376 60.759757,60.759757 0 0 0 0.2537303,0.22169 60.759757,60.759757 0 0 0 0.25529,0.22066 60.759757,60.759757 0 0 0 0.25579,0.21962 60.759757,60.759757 0 0 0 0.25735,0.21756 60.759757,60.759757 0 0 0 0.2589,0.21652 60.759757,60.759757 0 0 0 0.25942,0.21498 60.759757,60.759757 0 0 0 0.26096,0.21342 60.759757,60.759757 0 0 0 0.26252,0.21187 60.759757,60.759757 0 0 0 0.26303,0.21085 60.759757,60.759757 0 0 0 0.26459,0.20928 60.759757,60.759757 0 0 0 0.26561,0.20723 60.759757,60.759757 0 0 0 0.26665,0.20618 60.759757,60.759757 0 0 0 0.26769,0.20464 60.759757,60.759757 0 0 0 0.26923,0.20361 60.759757,60.759757 0 0 0 0.27027,0.20154 60.759757,60.759757 0 0 0 0.2713,0.19999 60.759757,60.759757 0 0 0 0.27234,0.19895 60.759757,60.759757 0 0 0 0.27336,0.19689 60.759757,60.759757 0 0 0 0.27441,0.19585 60.759757,60.759757 0 0 0 0.27595,0.1943 60.759757,60.759757 0 0 0 0.27647,0.19276 60.759757,60.759757 0 0 0 0.27802,0.19068 60.759757,60.759757 0 0 0 0.27905,0.18966 60.759757,60.759757 0 0 0 0.27957,0.1881 60.759757,60.759757 0 0 0 0.28112,0.18603 60.759757,60.759757 0 0 0 0.28163,0.185 60.759757,60.759757 0 0 0 0.28319,0.18346 60.759757,60.759757 0 0 0 0.28422,0.1819 60.759757,60.759757 0 0 0 0.28474,0.17983 60.759757,60.759757 0 0 0 0.28629,0.1788 60.759757,60.759757 0 0 0 0.2868,0.17674 60.759757,60.759757 0 0 0 0.28784,0.17518 60.759757,60.759757 0 0 0 0.28887,0.17415 60.759757,60.759757 0 0 0 0.289898,0.17208 60.759757,60.759757 0 0 0 0.29094,0.17053 60.759757,60.759757 0 0 0 0.29197,0.16898 60.759757,60.759757 0 0 0 0.29249,0.16692 60.759757,60.759757 0 0 0 0.29352,0.16588 60.759757,60.759757 0 0 0 0.29456,0.16433 60.759757,60.759757 0 0 0 0.29559,0.16227 60.759757,60.759757 0 0 0 0.29662,0.16071 60.759757,60.759757 0 0 0 0.29714,0.15916 60.759757,60.759757 0 0 0 0.29817,0.15762 60.759757,60.759757 0 0 0 0.29869,0.15554 60.759757,60.759757 0 0 0 0.30025,0.154 60.759757,60.759757 0 0 0 0.30023,0.15244 60.759757,60.759757 0 0 0 0.3018,0.1509 60.759757,60.759757 0 0 0 0.3023,0.14934 60.759757,60.759757 0 0 0 0.30334,0.14728 60.759757,60.759757 0 0 0 0.30386,0.14573 60.759757,60.759757 0 0 0 0.30489,0.14418 60.759757,60.759757 0 0 0 0.30541,0.14262 60.759757,60.759757 0 0 0 0.30644,0.14056 60.759757,60.759757 0 0 0 0.30748,0.13901 60.759757,60.759757 0 0 0 0.30799,0.13746 60.759757,60.759757 0 0 0 0.30851,0.13539 60.759757,60.759757 0 0 0 0.30954,0.13384 60.759757,60.759757 0 0 0 0.31005,0.1323 60.759757,60.759757 0 0 0 0.3111,0.13022 60.759757,60.759757 0 0 0 0.31161,0.12868 60.759757,60.759757 0 0 0 0.31212,0.12712 60.759757,60.759757 0 0 0 0.31316,0.12506 60.759757,60.759757 0 0 0 0.31368,0.1235 60.759757,60.759757 0 0 0 0.31419,0.12196 60.759757,60.759757 0 0 0 0.31523,0.11989 60.759757,60.759757 0 0 0 0.31574,0.11834 60.759757,60.759757 0 0 0 0.31626,0.11627 60.759757,60.759757 0 0 0 0.31729,0.11472 60.759757,60.759757 0 0 0 0.31781,0.11317 60.759757,60.759757 0 0 0 0.31833,0.11111 60.759757,60.759757 0 0 0 0.31884,0.10955 60.759757,60.759757 0 0 0 0.31936,0.10749 60.759757,60.759757 0 0 0 0.31988,0.10594 60.759757,60.759757 0 0 0 0.32091,0.10438 60.759757,60.759757 0 0 0 0.32143,0.10232 60.759757,60.759757 0 0 0 0.32142,0.10025 60.759757,60.759757 0 0 0 0.32247,0.0987 60.759757,60.759757 0 0 0 0.32297,0.0971 60.759757,60.759757 0 0 0 0.3235,0.0951 60.759757,60.759757 0 0 0 0.32401,0.0935 60.759757,60.759757 0 0 0 0.32453,0.0915 60.759757,60.759757 0 0 0 0.32504,0.0899 60.759757,60.759757 0 0 0 0.32505,0.0879 60.759757,60.759757 0 0 0 0.32608,0.0863 60.759757,60.759757 0 0 0 0.32659,0.0842 60.759757,60.759757 0 0 0 0.3266,0.0827 60.759757,60.759757 0 0 0 0.32762,0.0806 60.759757,60.759757 0 0 0 0.32763,0.0791 60.759757,60.759757 0 0 0 0.32815,0.077 60.759757,60.759757 0 0 0 0.32866,0.0754 60.759757,60.759757 0 0 0 0.32918,0.0734 60.759757,60.759757 0 0 0 0.3297,0.0713 60.759757,60.759757 0 0 0 0.32969,0.0698 60.759757,60.759757 0 0 0 0.33021,0.0682 60.759757,60.759757 0 0 0 0.33073,0.0662 60.759757,60.759757 0 0 0 0.33073,0.0641 60.759757,60.759757 0 0 0 0.33125,0.0625 60.759757,60.759757 0 0 0 0.33176,0.0605 60.759757,60.759757 0 0 0 0.33228,0.0589 60.759757,60.759757 0 0 0 0.33228,0.0568 60.759757,60.759757 0 0 0 0.33228,0.0553 60.759757,60.759757 0 0 0 0.33331,0.0532 60.759757,60.759757 0 0 0 0.3328,0.0512 60.759757,60.759757 0 0 0 0.33383,0.0496 60.759757,60.759757 0 0 0 0.33383,0.0481 60.759757,60.759757 0 0 0 0.33383,0.0455 60.759757,60.759757 0 0 0 0.33434,0.0439 60.759757,60.759757 0 0 0 0.33435,0.0424 60.759757,60.759757 0 0 0 0.33486,0.0403 60.759757,60.759757 0 0 0 0.33487,0.0382 60.759757,60.759757 0 0 0 0.33538,0.0367 60.759757,60.759757 0 0 0 0.33538,0.0346 60.759757,60.759757 0 0 0 0.33538,0.0331 60.759757,60.759757 0 0 0 0.33589,0.0305 60.759757,60.759757 0 0 0 0.3359,0.0294 60.759757,60.759757 0 0 0 0.3359,0.0274 60.759757,60.759757 0 0 0 0.33641,0.0253 60.759757,60.759757 0 0 0 0.3359,0.0233 60.759757,60.759757 0 0 0 0.33693,0.0217 60.759757,60.759757 0 0 0 0.33641,0.0196 60.759757,60.759757 0 0 0 0.33641,0.0181 60.759757,60.759757 0 0 0 0.33693,0.016 60.759757,60.759757 0 0 0 0.33694,0.014 60.759757,60.759757 0 0 0 0.33693,0.0124 60.759757,60.759757 0 0 0 0.33693,0.0103 60.759757,60.759757 0 0 0 0.33693,0.009 60.759757,60.759757 0 0 0 0.33744,0.007 60.759757,60.759757 0 0 0 0.33693,0.005 60.759757,60.759757 0 0 0 0.33693,0.003 60.759757,60.759757 0 0 0 0.33745,0.001 60.759757,60.759757 0 0 0 0.0253,0 60.759757,60.759757 0 0 0 0.33745,-0.001 60.759757,60.759757 0 0 0 0.33693,-0.003 60.759757,60.759757 0 0 0 0.33745,-0.005 60.759757,60.759757 0 0 0 0.33693,-0.007 60.759757,60.759757 0 0 0 0.33693,-0.008 60.759757,60.759757 0 0 0 0.33693,-0.0103 60.759757,60.759757 0 0 0 0.33693,-0.0124 60.759757,60.759757 0 0 0 0.33693,-0.0139 60.759757,60.759757 0 0 0 0.33693,-0.016 60.759757,60.759757 0 0 0 0.33641,-0.0176 60.759757,60.759757 0 0 0 0.33693,-0.0196 60.759757,60.759757 0 0 0 0.33642,-0.0217 60.759757,60.759757 0 0 0 0.33641,-0.0233 60.759757,60.759757 0 0 0 0.3359,-0.0253 60.759757,60.759757 0 0 0 0.33641,-0.0269 60.759757,60.759757 0 0 0 0.3359,-0.0289 60.759757,60.759757 0 0 0 0.33538,-0.031 60.759757,60.759757 0 0 0 0.33589,-0.0326 60.759757,60.759757 0 0 0 0.33538,-0.0346 60.759757,60.759757 0 0 0 0.33487,-0.0362 60.759757,60.759757 0 0 0 0.33486,-0.0382 60.759757,60.759757 0 0 0 0.33486,-0.0403 60.759757,60.759757 0 0 0 0.33487,-0.0419 60.759757,60.759757 0 0 0 0.33434,-0.0439 60.759757,60.759757 0 0 0 0.33383,-0.0455 60.759757,60.759757 0 0 0 0.33383,-0.0476 60.759757,60.759757 0 0 0 0.33332,-0.0496 60.759757,60.759757 0 0 0 0.33331,-0.0511 60.759757,60.759757 0 0 0 0.33279,-0.0532 60.759757,60.759757 0 0 0 0.3328,-0.0548 60.759757,60.759757 0 0 0 0.33228,-0.0568 60.759757,60.759757 0 0 0 0.33228,-0.0589 60.759757,60.759757 0 0 0 0.33176,-0.0605 60.759757,60.759757 0 0 0 0.33125,-0.062 60.759757,60.759757 0 0 0 0.33073,-0.0641 60.759757,60.759757 0 0 0 0.33073,-0.0661 60.759757,60.759757 0 0 0 0.33021,-0.0677 60.759757,60.759757 0 0 0 0.33021,-0.0698 60.759757,60.759757 0 0 0 0.32918,-0.0713 60.759757,60.759757 0 0 0 0.32918,-0.0734 60.759757,60.759757 0 0 0 0.32866,-0.0755 60.759757,60.759757 0 0 0 0.32815,-0.077 60.759757,60.759757 0 0 0 0.32814,-0.0785 60.759757,60.759757 0 0 0 0.32711,-0.0806 60.759757,60.759757 0 0 0 0.32712,-0.0822 60.759757,60.759757 0 0 0 0.32659,-0.0842 60.759757,60.759757 0 0 0 0.32556,-0.0863 60.759757,60.759757 0 0 0 0.32556,-0.0879 60.759757,60.759757 0 0 0 0.32505,-0.0894 60.759757,60.759757 0 0 0 0.32453,-0.0915 60.759757,60.759757 0 0 0 0.32401,-0.0935 60.759757,60.759757 0 0 0 0.32349,-0.0951 60.759757,60.759757 0 0 0 0.32298,-0.0966 60.759757,60.759757 0 0 0 0.32246,-0.0987 60.759757,60.759757 0 0 0 0.32195,-0.10026 60.759757,60.759757 0 0 0 0.32142,-0.10232 60.759757,60.759757 0 0 0 0.3204,-0.10387 60.759757,60.759757 0 0 0 0.32039,-0.10593 60.759757,60.759757 0 0 0 0.31936,-0.10749 60.759757,60.759757 0 0 0 0.31885,-0.10904 60.759757,60.759757 0 0 0 0.31832,-0.1111 60.759757,60.759757 0 0 0 0.31781,-0.11317 60.759757,60.759757 0 0 0 0.3173,-0.11472 60.759757,60.759757 0 0 0 0.31625,-0.11628 60.759757,60.759757 0 0 0 0.31575,-0.11782 60.759757,60.759757 0 0 0 0.31522,-0.11989 60.759757,60.759757 0 0 0 0.31471,-0.12195 60.759757,60.759757 0 0 0 0.31368,-0.123 60.759757,60.759757 0 0 0 0.31316,-0.12505 60.759757,60.759757 0 0 0 0.31212,-0.12713 60.759757,60.759757 0 0 0 0.31161,-0.12815 60.759757,60.759757 0 0 0 0.3111,-0.13075 60.759757,60.759757 0 0 0 0.31005,-0.13177 60.759757,60.759757 0 0 0 0.30955,-0.13384 60.759757,60.759757 0 0 0 0.30902,-0.13539 60.759757,60.759757 0 0 0 0.30799,-0.13695 60.759757,60.759757 0 0 0 0.30696,-0.13901 60.759757,60.759757 0 0 0 0.30644,-0.14056 60.759757,60.759757 0 0 0 0.30593,-0.14211 60.759757,60.759757 0 0 0 0.30489,-0.14417 60.759757,60.759757 0 0 0 0.30385,-0.14573 60.759757,60.759757 0 0 0 0.30335,-0.14728 60.759757,60.759757 0 0 0 0.3023,-0.14883 60.759757,60.759757 0 0 0 0.30179,-0.15089 60.759757,60.759757 0 0 0 0.30076,-0.15245 60.759757,60.759757 0 0 0 0.29972,-0.15399 60.759757,60.759757 0 0 0 0.29921,-0.15555 60.759757,60.759757 0 0 0 0.29817,-0.1571 60.759757,60.759757 0 0 0 0.29766,-0.15916 60.759757,60.759757 0 0 0 0.29611,-0.16071 60.759757,60.759757 0 0 0 0.29558,-0.16227 60.759757,60.759757 0 0 0 0.29456,-0.16381 60.759757,60.759757 0 0 0 0.29404,-0.16588 60.759757,60.759757 0 0 0 0.29249,-0.16692 60.759757,60.759757 0 0 0 0.29197,-0.16898 60.759757,60.759757 0 0 0 0.29094,-0.17053 60.759757,60.759757 0 0 0 0.2899,-0.17157 60.759757,60.759757 0 0 0 0.28887,-0.17363 60.759757,60.759757 0 0 0 0.28836,-0.1757 60.759757,60.759757 0 0 0 0.2868,-0.17673 60.759757,60.759757 0 0 0 0.28629,-0.17829 60.759757,60.759757 0 0 0 0.28474,-0.17983 60.759757,60.759757 0 0 0 0.28422,-0.1819 60.759757,60.759757 0 0 0 0.28318,-0.18294 60.759757,60.759757 0 0 0 0.28216,-0.185 60.759757,60.759757 0 0 0 0.2806,-0.18603 60.759757,60.759757 0 0 0 0.28009,-0.1881 60.759757,60.759757 0 0 0 0.27905,-0.18914 60.759757,60.759757 0 0 0 0.27802,-0.1912 60.759757,60.759757 0 0 0 0.27647,-0.19224 60.759757,60.759757 0 0 0 0.27595,-0.1943 60.759757,60.759757 0 0 0 0.2744,-0.19534 60.759757,60.759757 0 0 0 0.27389,-0.19689 60.759757,60.759757 0 0 0 0.27233,-0.19895 60.759757,60.759757 0 0 0 0.2713,-0.19999 60.759757,60.759757 0 0 0 0.27027,-0.20154 60.759757,60.759757 0 0 0 0.26923,-0.20309 60.759757,60.759757 0 0 0 0.2682,-0.20463 60.759757,60.759757 0 0 0 0.26666,-0.20619 60.759757,60.759757 0 0 0 0.26561,-0.20723 60.759757,60.759757 0 0 0 0.26458,-0.20929 60.759757,60.759757 0 0 0 0.26356,-0.21032 60.759757,60.759757 0 0 0 0.26199,-0.21187 60.759757,60.759757 0 0 0 0.26097,-0.21343 60.759757,60.759757 0 0 0 0.25993,-0.21497 60.759757,60.759757 0 0 0 0.2589,-0.21601 60.759757,60.759757 0 0 0 0.25736,-0.21807 60.759757,60.759757 0 0 0 0.2563,-0.21911 60.759757,60.759757 0 0 0 0.25477,-0.22014 60.759757,60.759757 0 0 0 0.25373,-0.22221 60.759757,60.759757 0 0 0 0.25271,-0.22324 60.759757,60.759757 0 0 0 0.25114,-0.22479 60.759757,60.759757 0 0 0 0.25011,-0.22635 60.759757,60.759757 0 0 0 0.24908,-0.22737 60.759757,60.759757 0 0 0 0.24754,-0.22893 60.759757,60.759757 0 0 0 0.24596,-0.23048 60.759757,60.759757 0 0 0 0.24495,-0.23151 60.759757,60.759757 0 0 0 0.24392,-0.23306 60.759757,60.759757 0 0 0 0.24236,-0.23409 60.759757,60.759757 0 0 0 0.24082,-0.23565 60.759757,60.759757 0 0 0 0.23977,-0.23719 60.759757,60.759757 0 0 0 0.23876,-0.23823 60.759757,60.759757 0 0 0 0.2372,-0.23978 60.759757,60.759757 0 0 0 0.23563,-0.24081 60.759757,60.759757 0 0 0 0.23461,-0.24236 60.759757,60.759757 0 0 0 0.23307,-0.24392 60.759757,60.759757 0 0 0 0.23151,-0.24494 60.759757,60.759757 0 0 0 0.23048,-0.24598 60.759757,60.759757 0 0 0 0.22892,-0.24753 60.759757,60.759757 0 0 0 0.22788,-0.24857 60.759757,60.759757 0 0 0 0.22635,-0.25011 60.759757,60.759757 0 0 0 0.0124,-0.014 z" />
  </g>
  <g
     inkscape:groupmode="layer"
     id="layer6"
     inkscape:label="Vault"
     style="display:inline">
    <ellipse
       style="display:inline;fill:#b6b6b6;fill-opacity:1;stroke:#595959;stroke-width:1.06;stroke-miterlimit:4;stroke-dasharray:none;stroke-opacity:1"
       id="path1222"
       cx="11.178441"
       cy="112.0981"
       rx="2.4202275"
       ry="2.4202278" />
    <ellipse
       style="display:inline;fill:#b6b6b6;fill-opacity:1;stroke:#595959;stroke-width:1.06;stroke-miterlimit:4;stroke-dasharray:none;stroke-opacity:1"
       id="path1222-4"
       cx="20.977678"
       cy="119.62947"
       rx="2.4202275"
       ry="2.4202278" />
    <ellipse
       style="display:inline;fill:#b6b6b6;fill-opacity:1;stroke:#595959;stroke-width:1.06;stroke-miterlimit:4;stroke-dasharray:none;stroke-opacity:1"
       id="path1222-6"
       cx="32.316963"
       cy="125.2991"
       rx="2.4202275"
       ry="2.4202278" />
    <ellipse
       style="display:inline;fill:#b6b6b6;fill-opacity:1;stroke:#595959;stroke-width:1.06;stroke-miterlimit:4;stroke-dasharray:none;stroke-opacity:1"
       id="path1222-9"
       cx="44.979164"
       cy="128.13393"
       rx="2.4202275"
       ry="2.4202278" />
    <ellipse
       style="display:inline;fill:#b6b6b6;fill-opacity:1;stroke:#595959;stroke-width:1.06;stroke-miterlimit:4;stroke-dasharray:none;stroke-opacity:1"
       id="path1222-8"
       cx="58.964291"
       cy="127.75596"
       rx="2.4202275"
       ry="2.4202278" />
    <ellipse
       style="display:inline;fill:#b6b6b6;fill-opacity:1;stroke:#595959;stroke-width:1.06;stroke-miterlimit:4;stroke-dasharray:none;stroke-opacity:1"
       id="path1222-3"
       cx="72.193459"
       cy="123.59822"
       rx="2.4202275"
       ry="2.4202278" />
    <ellipse
       style="display:inline;fill:#b6b6b6;fill-opacity:1;stroke:#595959;stroke-width:1.06;stroke-miterlimit:4;stroke-dasharray:none;stroke-opacity:1"
       id="path1222-82"
       cx="83.721718"
       cy="117.17262"
       rx="2.4202275"
       ry="2.4202278" />
    <ellipse
       style="display:inline;fill:#b6b6b6;fill-opacity:1;stroke:#595959;stroke-width:1.06;stroke-miterlimit:4;stroke-dasharray:none;stroke-opacity:1"
       id="path1222-2"
       cx="91.848213"
       cy="109.04613"
       rx="2.4202275"
       ry="2.4202278" />
    <ellipse
       style="display:inline;fill:#b6b6b6;fill-opacity:1;stroke:#595959;stroke-width:1.06;stroke-miterlimit:4;stroke-dasharray:none;stroke-opacity:1"
       id="path1222-31"
       cx="90.147324"
       cy="31.938988"
       rx="2.4202275"
       ry="2.4202278" />
    <ellipse
       style="display:inline;fill:#b6b6b6;fill-opacity:1;stroke:#595959;stroke-width:1.06;stroke-miterlimit:4;stroke-dasharray:none;stroke-opacity:1"
       id="path1222-34"
       cx="80.697922"
       cy="24.568453"
       rx="2.4202275"
       ry="2.4202278" />
    <ellipse
       style="display:inline;fill:#b6b6b6;fill-opacity:1;stroke:#595959;stroke-width:1.06;stroke-miterlimit:4;stroke-dasharray:none;stroke-opacity:1"
       id="path1222-7"
       cx="69.358627"
       cy="18.898809"
       rx="2.4202275"
       ry="2.4202278" />
    <ellipse
       style="display:inline;fill:#b6b6b6;fill-opacity:1;stroke:#595959;stroke-width:1.06;stroke-miterlimit:4;stroke-dasharray:none;stroke-opacity:1"
       id="path1222-5"
       cx="56.507439"
       cy="15.686012"
       rx="2.4202275"
       ry="2.4202278" />
    <ellipse
       style="display:inline;fill:#b6b6b6;fill-opacity:1;stroke:#595959;stroke-width:1.06;stroke-miterlimit:4;stroke-dasharray:none;stroke-opacity:1"
       id="path1222-1"
       cx="41.766369"
       cy="15.875"
       rx="2.4202275"
       ry="2.4202278" />
    <ellipse
       style="display:inline;fill:#b6b6b6;fill-opacity:1;stroke:#595959;stroke-width:1.06;stroke-miterlimit:4;stroke-dasharray:none;stroke-opacity:1"
       id="path1222-12"
       cx="28.348215"
       cy="19.654762"
       rx="2.4202275"
       ry="2.4202278" />
    <ellipse
       style="display:inline;fill:#b6b6b6;fill-opacity:1;stroke:#595959;stroke-width:1.06;stroke-miterlimit:4;stroke-dasharray:none;stroke-opacity:1"
       id="path1222-39"
       cx="17.575893"
       cy="25.702381"
       rx="2.4202275"
       ry="2.4202278" />
    <ellipse
       style="display:inline;fill:#b6b6b6;fill-opacity:1;stroke:#595959;stroke-width:1.06;stroke-miterlimit:4;stroke-dasharray:none;stroke-opacity:1"
       id="path1222-317"
       cx="8.6934528"
       cy="34.206844"
       rx="2.4202275"
       ry="2.4202278" />
  </g>
  <g
     inkscape:groupmode="layer"
     id="layer12"
     inkscape:label="Cross">
    <g
       aria-label="x"
       transform="matrix(0.80807449,0,0,1.2375097,-0.08448692,0.07947318)"
       id="text885"
       style="font-style:normal;font-weight:normal;font-size:179.013px;line-height:1.25;font-family:sans-serif;display:inline;fill:#d0332e;fill-opacity:1;stroke:#000000;stroke-width:4.47535;stroke-opacity:1;filter:url(#filter3432)">
      <g
         id="g2775"
         style="opacity:1">
        <path
           style="color:#000000;font-style:normal;font-variant:normal;font-weight:normal;font-stretch:normal;font-size:medium;line-height:1.25;font-family:sans-serif;font-variant-ligatures:normal;font-variant-position:normal;font-variant-caps:normal;font-variant-numeric:normal;font-variant-alternates:normal;font-variant-east-asian:normal;font-feature-settings:normal;font-variation-settings:normal;text-indent:0;text-align:start;text-decoration:none;text-decoration-line:none;text-decoration-style:solid;text-decoration-color:#000000;letter-spacing:normal;word-spacing:normal;text-transform:none;writing-mode:lr-tb;direction:ltr;text-orientation:mixed;dominant-baseline:auto;baseline-shift:baseline;text-anchor:start;white-space:normal;shape-padding:0;shape-margin:0;inline-size:0;clip-rule:nonzero;display:inline;overflow:visible;visibility:visible;isolation:auto;mix-blend-mode:normal;color-interpolation:sRGB;color-interpolation-filters:linearRGB;solid-color:#000000;solid-opacity:1;vector-effect:none;fill:#d0332e;fill-opacity:1;fill-rule:nonzero;stroke:none;stroke-width:4.47535;stroke-linecap:butt;stroke-linejoin:miter;stroke-miterlimit:4;stroke-dasharray:none;stroke-dashoffset:0;stroke-opacity:1;color-rendering:auto;image-rendering:auto;shape-rendering:auto;text-rendering:auto;enable-background:accumulate;stop-color:#000000;stop-opacity:1"
           d="M 110.80424,106.20254 H 90.088378 L 62.379823,68.704209 34.496451,106.20254 H 15.353947 L 53.464137,57.515896 15.703582,8.567029 h 20.71586 L 63.95318,45.453497 91.574326,8.567029 h 19.229914 l -38.372417,48.07478 z"
           id="path2777" />
        <path
           style="color:#000000;font-style:normal;font-variant:normal;font-weight:normal;font-stretch:normal;font-size:medium;line-height:1.25;font-family:sans-serif;font-variant-ligatures:normal;font-variant-position:normal;font-variant-caps:normal;font-variant-numeric:normal;font-variant-alternates:normal;font-variant-east-asian:normal;font-feature-settings:normal;font-variation-settings:normal;text-indent:0;text-align:start;text-decoration:none;text-decoration-line:none;text-decoration-style:solid;text-decoration-color:#000000;letter-spacing:normal;word-spacing:normal;text-transform:none;writing-mode:lr-tb;direction:ltr;text-orientation:mixed;dominant-baseline:auto;baseline-shift:baseline;text-anchor:start;white-space:normal;shape-padding:0;shape-margin:0;inline-size:0;clip-rule:nonzero;display:inline;overflow:visible;visibility:visible;isolation:auto;mix-blend-mode:normal;color-interpolation:sRGB;color-interpolation-filters:linearRGB;solid-color:#000000;solid-opacity:1;vector-effect:none;fill:#000000;fill-opacity:1;fill-rule:nonzero;stroke:none;stroke-width:4.47535;stroke-linecap:butt;stroke-linejoin:miter;stroke-miterlimit:4;stroke-dasharray:none;stroke-dashoffset:0;stroke-opacity:1;color-rendering:auto;image-rendering:auto;shape-rendering:auto;text-rendering:auto;enable-background:accumulate;stop-color:#000000;stop-opacity:1"
           d="M 11.150391,6.3300781 50.630859,57.505859 10.759766,108.43945 H 35.621094 L 62.375,72.460938 88.958984,108.43945 H 115.36719 L 112.57422,104.83203 75.277344,56.662109 115.45312,6.3300781 H 90.455078 l -26.5,35.3867189 L 37.541016,6.3300781 Z m 9.103515,4.4746099 H 35.296875 L 63.951172,49.191406 92.693359,10.804688 H 106.1543 L 69.585938,56.621094 106.24219,103.96484 H 91.216797 L 62.384766,64.947266 33.371094,103.96484 H 19.947266 L 56.298828,57.525391 Z"
           id="path2779" />
      </g>
    </g>
  </g>
</svg>
